<?xml version="1.0" encoding="utf-8"?>
<!-- Generator: Adobe Illustrator 24.0.0, SVG Export Plug-In . SVG Version: 6.00 Build 0)  -->
<svg version="1.1" xmlns="http://www.w3.org/2000/svg" xmlns:xlink="http://www.w3.org/1999/xlink" x="0px" y="0px"
	 viewBox="0 0 250 250" style="enable-background:new 0 0 250 250;" xml:space="preserve">
<style type="text/css">
	.st0{display:none;}
	.st1{display:inline;}
	.st2{fill:#030303;}
	.st3{fill:#010101;}
	.st4{fill:none;stroke:#231F20;stroke-width:3;stroke-linecap:round;stroke-linejoin:round;stroke-miterlimit:10;}
	.st5{fill:#010101;stroke:#010101;stroke-miterlimit:10;}
	.st6{fill:none;stroke:#010101;stroke-width:5.6693;stroke-linecap:round;stroke-miterlimit:10;}
	.st7{fill:none;stroke:#231F20;stroke-width:5.6693;stroke-linecap:round;stroke-miterlimit:10;}
	.st8{fill:none;stroke:#231F20;stroke-width:10.2394;stroke-linecap:round;stroke-linejoin:round;stroke-miterlimit:10;}
	.st9{fill:#010101;stroke:#231F20;stroke-miterlimit:10;}
	.st10{fill:none;stroke:#231F20;stroke-width:8.6952;stroke-miterlimit:10;}
</style>
<g id="Layer_1" class="st0">
	<g class="st1">
		<path class="st2" d="M153.9,156.3c-26.3,0-47.6-21.4-47.6-47.6c0-26.3,21.4-47.6,47.6-47.6c26.3,0,47.6,21.4,47.6,47.6
			C201.5,135,180.1,156.3,153.9,156.3z M153.9,67.9c-22.5,0-40.8,18.3-40.8,40.8s18.3,40.8,40.8,40.8c22.5,0,40.8-18.3,40.8-40.8
			S176.4,67.9,153.9,67.9z"/>
		<path class="st2" d="M155.1,136.8C155.1,136.8,155.1,136.8,155.1,136.8c-2.8,0-5.8-0.3-8.8-0.9c-6.5-1.3-14.3-6.8-18.1-12.8
			c-4.4-7-1.5-16.2,4.1-20.3c4.1-3,12-4.4,16.6-2.7c3.5,1.3,5.3,4.6,6.7,7.2c0.5,1,1,1.9,1.5,2.5l0.2,0.2c1.5,2,1.7,2.1,2.5,2
			c0.7,0,1.4-0.5,2.5-1.3c0.9-0.7,1.9-1.4,3.2-1.9c3.9-1.6,7.9-0.7,10.4,2.3c2.3,2.8,3.2,7,2.5,11.1c-0.9,4.8-4.8,8.7-7.9,10.6
			C169.5,133.6,164.4,136.8,155.1,136.8z M144.1,106.1c-3.1,0-6.2,1.1-7.6,2.2c-3,2.2-4.7,7.5-2.4,11.2c2.8,4.4,8.9,8.8,13.7,9.8
			c2.6,0.5,5.1,0.8,7.4,0.8h0c7.6,0,11.3-2.6,11.4-2.8l0.3-0.2c2.5-1.5,4.5-4,4.9-6.1c0.4-2,0-4.3-1-5.5c-0.5-0.6-1-0.7-1.3-0.7
			c-0.4,0-0.8,0.1-1.3,0.3c-0.5,0.2-1.1,0.7-1.8,1.1c-1.5,1.1-3.6,2.6-6.5,2.6c-4.3,0-6.2-2.5-7.9-4.6l-0.2-0.2
			c-0.8-1-1.4-2.2-2.1-3.4c-0.9-1.7-2-3.7-3.1-4.1C146.2,106.3,145.4,106.1,144.1,106.1z"/>
		<path class="st2" d="M143.4,110.2c-1.3,0-2.6-0.8-3.2-2.1c-2.8-6.7-1.8-13.4-1.8-13.6c0.3-1.9,2.1-3.1,3.9-2.8
			c1.9,0.3,3.1,2,2.8,3.9c0,0-0.7,5.1,1.3,10c0.7,1.7-0.1,3.7-1.8,4.5C144.3,110.1,143.8,110.2,143.4,110.2z"/>
		<path class="st2" d="M135.9,113c-0.6,0-1.2-0.2-1.8-0.5c-3-1.8-6.1-4.4-8.9-7.3c-1.3-1.4-1.2-3.5,0.1-4.8c1.4-1.3,3.5-1.2,4.8,0.1
			c2.3,2.4,5,4.7,7.4,6.1c1.6,1,2.1,3.1,1.2,4.7C138.1,112.5,137,113,135.9,113z"/>
		<path class="st2" d="M126.9,129.7c-1.1,0-2.1-0.5-2.8-1.4c-1.1-1.5-0.8-3.7,0.8-4.8c0.6-0.5,4.1-4,6.9-6.9
			c1.3-1.4,3.5-1.4,4.8-0.1c1.4,1.3,1.4,3.5,0.1,4.8c-3,3.1-6.7,7-7.8,7.7C128.3,129.5,127.6,129.7,126.9,129.7z"/>
		<path class="st2" d="M137.9,139.7c-0.3,0-0.7,0-1-0.2c-1.8-0.6-2.8-2.5-2.3-4.3l3.1-10c0.6-1.8,2.5-2.8,4.3-2.3
			c1.8,0.6,2.8,2.5,2.3,4.3l-3.1,10C140.7,138.8,139.4,139.7,137.9,139.7z"/>
		<path class="st2" d="M150.1,142.8c-1.7,0-3.2-1.3-3.4-3c-0.1-0.9-1-8.5-0.9-11.3c0-1.9,1.7-3.3,3.5-3.3c1.9,0,3.4,1.6,3.3,3.5
			c0,1.7,0.5,7.1,0.9,10.3c0.2,1.9-1.1,3.6-3,3.8C150.4,142.7,150.2,142.8,150.1,142.8z"/>
		<path class="st2" d="M166.4,141.5c-1.3,0-2.5-0.7-3.1-1.9c-0.7-1.3-3.9-6.4-5.7-9.2c-1-1.6-0.6-3.7,1-4.7c1.6-1,3.7-0.6,4.7,1
			c0.5,0.8,5,7.8,6.1,9.9c0.8,1.7,0.2,3.7-1.5,4.6C167.4,141.4,166.9,141.5,166.4,141.5z"/>
		<path class="st2" d="M178.2,134c-0.6,0-1.3-0.2-1.8-0.5c-0.7-0.4-5.4-2.3-9.3-3.8c-1.8-0.7-2.6-2.6-2-4.4c0.7-1.8,2.6-2.6,4.4-2
			c4.2,1.6,9.4,3.6,10.6,4.4c1.6,1,2.1,3.1,1,4.7C180.4,133.4,179.3,134,178.2,134z"/>
		<path class="st2" d="M171.7,125.1c-1.1,0-2.2-0.5-2.9-1.5c-1-1.6-0.6-3.7,1-4.7c3.4-2.3,7.5-5.1,8.4-5.9c1.1-1.3,2.9-1.6,4.4-0.7
			c1.6,1,2.1,3.1,1.2,4.7c-0.4,0.7-0.9,1.5-10.2,7.6C173,124.9,172.3,125.1,171.7,125.1z"/>
		<path class="st2" d="M169.9,118.9c-0.3,0-0.6,0-0.9-0.1c-1.8-0.5-2.9-2.4-2.3-4.2l3.1-10.6c0.5-1.8,2.4-2.9,4.2-2.3
			c1.8,0.5,2.9,2.4,2.3,4.2l-3.1,10.6C172.7,118,171.3,118.9,169.9,118.9z"/>
		<path class="st2" d="M150.3,115.4c-0.1,0-0.3,0-0.4,0c-1.9-0.2-3.2-1.9-3-3.8c0.4-2.9,1.3-9.9,2.5-12.2c0.9-1.7,2.9-2.3,4.6-1.5
			c1.7,0.9,2.3,2.9,1.5,4.6c-0.5,1-1.3,6-1.8,10C153.4,114.1,152,115.4,150.3,115.4z"/>
		<path class="st2" d="M160.7,122.4c-0.1,0-0.2,0-0.3,0c-1.9-0.2-3.3-1.8-3.1-3.7l0.8-8.8c0.2-1.9,1.8-3.2,3.7-3.1
			c1.9,0.2,3.3,1.8,3.1,3.7l-0.8,8.8C163.9,121.1,162.4,122.4,160.7,122.4z"/>
		<path class="st2" d="M166.4,87.5c-1.5,0-2.9-1-3.3-2.5c-0.7-2.5-4.5-2.4-4.6-2.4c0,0-0.1,0-0.1,0c-1.8,0-3.3-1.4-3.4-3.3
			c-0.1-1.9,1.4-3.5,3.2-3.5c3.2-0.2,9.7,1.2,11.5,7.4c0.5,1.8-0.6,3.7-2.4,4.2C167,87.5,166.7,87.5,166.4,87.5z"/>
		<path class="st2" d="M141.5,84.7c-0.1,0-0.1,0-0.2,0c-1.8-0.1-3.2-1.5-3.2-3.3c-1-1.4-0.8-3.4,0.6-4.5c1.4-1.2,3.6-1.1,4.8,0.3
			c1,1.2,1.5,2.7,1.4,4.3C144.8,83.3,143.3,84.7,141.5,84.7z"/>
		<path class="st2" d="M167.8,99.4c-1.1,0-2.2-0.6-2.9-1.6c-1-1.6-0.5-3.7,1.1-4.7c2.6-1.6,5.4-2,7.9-2.3c1.9-0.2,3.7,1.1,3.9,2.9
			c0.2,1.9-1,3.6-2.9,3.8c-2.2,0.3-4,0.5-5.3,1.3C169.1,99.3,168.5,99.4,167.8,99.4z"/>
		<path class="st2" d="M184.1,106.2c-0.8,0-1.6-0.3-2.2-0.8c-1.4-1.2-1.6-3.4-0.3-4.8c0.5-0.6,1.1-1.2,1.6-1.8l1.2-1.3
			c1.2-1.4,3.4-1.5,4.8-0.3c1.4,1.2,1.5,3.4,0.3,4.8c-0.4,0.5-0.8,0.9-1.2,1.4c-0.5,0.6-1,1.1-1.5,1.7
			C186,105.8,185,106.2,184.1,106.2z"/>
		<path class="st2" d="M109.7,108.7c0-14.2,6.7-26.8,17.1-34.9c-2.8-0.5-5.8-0.8-8.8-0.8h-0.2c-5.5,0-11.2,0.9-15.8,2.5
			c6.4,4.3,10.6,8.6,10.9,8.9c1.2,1.2,1.1,3.1-0.1,4.3c-0.6,0.6-1.4,0.9-2.1,0.9c-0.8,0-1.6-0.3-2.2-0.9
			c-0.1-0.1-21.6-25.6-50.3-10.1c-6.9,3.7-9.7,10.6-10,19.2l0,1.9c0.1,12.1,2.8,17,6,22.7l0.5,1c3.5,6,6.9,13,6.8,25.9
			c0,18.1,3.3,27.6,6.2,32.3c3.1,5.2,4.9,7.3,10,7.3c4.8,0,7.6-4.1,7.9-8.2c0.2-2.1,0.3-4.6,0.3-7.2c0.1-6,0.2-13.6,2.5-21.4
			c0.9-2.9,2-6.6,4.1-9.7c1.3-1.9,3.9-3.8,6.7-3.8c2.1,0,3.9,1.3,5.4,3.7c2,3.2,3.2,6.7,4.2,10c2.3,7.6,3.3,16.5,2.6,23.7
			c-0.4,4.6,0.5,8.1,2.6,10.4c2.1,2.3,4.7,2.5,5.5,2.5c4.8,0,6.9-2.2,10-7.3c2.8-4.7,6.2-14.2,6.2-32.3c0-0.1,0-0.3,0-0.4
			C120.3,142,109.7,126.6,109.7,108.7"/>
	</g>
</g>
<g id="Layer_2" class="st0">
	<g class="st1">
		<path class="st2" d="M125.5,66.6c-14,0-25.3,11.4-25.3,25.3c0,14,11.3,25.3,25.3,25.3c14,0,25.3-11.3,25.3-25.3
			C150.8,78,139.5,66.6,125.5,66.6z"/>
		<path class="st2" d="M171.9,155.2c0-0.3-0.1-1.1-0.1-1.2c-0.2-2.4-0.8-4.8-1.8-7c-3-6.9-9.5-12.8-18.1-16.8
			c0.4,2.3,0.6,4.9,0.4,7.2c-0.3,3.9-0.7,6.6-1,8.4c2.6,1.2,4.6,3.1,5.9,5.6c2.9,5.5,1.8,12.5,0.8,16.6c0.8,0.8,1.2,1.9,1.2,3.2
			c0,2.6-2.1,4.7-4.7,4.7c-2.6,0-4.7-2.1-4.7-4.7c0-2.3,1.6-4.1,3.8-4.6c0.8-3.4,1.6-9-0.5-13c-0.8-1.6-2.1-2.8-3.8-3.6
			c0,0-0.1,0-0.1-0.1c-0.6-0.3-1.3-0.5-2.1-0.7c-2.8-0.7-5.2-0.4-7.3,1.1c-3.6,2.4-5.6,7.6-6.6,11.3c1.1,0.9,1.8,2.2,1.8,3.7
			c0,2.6-2.1,4.7-4.7,4.7c-2.6,0-4.7-2.1-4.7-4.7c0-2,1.3-3.7,3-4.4c1-4,3.4-10.9,8.5-14.4c2.8-1.9,6.1-2.6,9.6-2
			c0.2-1.4,0.6-3.7,0.9-7.4c0.2-2.9-0.3-6.3-0.9-8.9c-0.2-0.1-0.4-0.1-0.7-0.2c-1.2-0.4-2.5-0.8-3.8-1.2c-5.3-1.4-11-2.2-17-2.2
			c-6,0-11.7,0.8-17,2.2c-1.3,0.3-2.6,0.7-3.8,1.2c0,0,0,0,0,0c0,0,0,0,0,0c-0.9,2.3-2.4,7.2-2.4,14.6c0,2.9,0.3,5.2,0.8,7.2
			c0.4,0,0.8-0.1,1.2-0.1c5.2,0,9.3,4.2,9.3,9.3c0,5.2-4.2,9.3-9.3,9.3c-5.1,0-9.3-4.2-9.3-9.3c0-3.1,1.5-5.8,3.9-7.5
			c-0.6-2.4-1.1-5.4-1.1-8.9c0-5.3,0.7-9.4,1.5-12.4c-8.7,4-15.2,9.9-18.3,16.9c-1,2.2-1.6,4.6-1.8,7c0,0.1-0.1,0.9-0.1,1.2
			c0,0.2,0,0.9,0,0.9v20.4c0,4,3.3,7.3,7.3,7.3h78.3c4,0,7.3-3.3,7.3-7.3v-20.4C171.9,156.1,171.9,155.4,171.9,155.2z"/>
	</g>
</g>
<g id="Layer_3" class="st0">
	<g class="st1">
		<g>
			<path class="st2" d="M145.2,148.3c-0.8,0-1.6-0.4-2-1.1L98.1,68.9c-0.6-1.1-0.3-2.5,0.8-3.1c1.1-0.6,2.5-0.3,3.1,0.8l45.1,78.2
				c0.6,1.1,0.3,2.5-0.8,3.1C146,148.2,145.6,148.3,145.2,148.3z"/>
			<g>
				<path class="st2" d="M133.5,141.8c-0.8,0-1.6-0.4-2-1.1c-0.6-1.1-0.3-2.5,0.8-3.1l11.9-6.9c1.1-0.6,2.5-0.3,3.1,0.8
					c0.6,1.1,0.3,2.5-0.8,3.1l-11.9,6.9C134.3,141.7,133.9,141.8,133.5,141.8z"/>
			</g>
			<g>
				<path class="st2" d="M126.6,129.8c-0.8,0-1.6-0.4-2-1.1c-0.6-1.1-0.3-2.5,0.8-3.1l11.9-6.9c1.1-0.6,2.5-0.3,3.1,0.8
					c0.6,1.1,0.3,2.5-0.8,3.1l-11.9,6.9C127.4,129.7,127,129.8,126.6,129.8z"/>
			</g>
			<g>
				<path class="st2" d="M119.7,117.9c-0.8,0-1.6-0.4-2-1.1c-0.6-1.1-0.3-2.5,0.8-3.1l11.9-6.9c1.1-0.6,2.5-0.3,3.1,0.8
					c0.6,1.1,0.3,2.5-0.8,3.1l-11.9,6.9C120.5,117.8,120.1,117.9,119.7,117.9z"/>
			</g>
		</g>
		<path class="st2" d="M178.2,107.7c-2-15-13.6-26.5-28.6-28.4c-6-0.8-11.7,0.1-16.8,2.2c-4.7,1.9-10.1,1.9-14.9,0
			c-1.4-0.6-2.8-1-4.3-1.4l12.6,21.7c1.4-0.1,2.9-0.4,4.2-1.1c3.2-1.4,6.7-2.1,10.5-1.7c9.1,1,16.5,8.4,17.5,17.4
			c0.5,4.6-0.5,8.9-2.6,12.4c-5.9,9.9-8.8,21.3-7.2,32.7l0.5,3.3c0.3,2.5-3.2,3.4-4.1,1.1c-5.9-15.2-14.2-23.3-19.7-23.3
			c-5.4,0-13.8,8.1-19.7,23.3c-0.9,2.4-4.4,1.4-4.1-1.1l0.5-3.3c1.6-11.4-1.3-22.8-7.2-32.7c-2.1-3.6-3.1-7.9-2.6-12.4
			c1-9.1,8.4-16.4,17.5-17.4c0,0,0.1,0,0.1,0L98.7,79.7c-14,2.9-24.9,14.8-26.3,29.2c-0.9,8.8,1.7,16.9,6.5,23.3
			c4.7,6.2,7.6,13.4,8.7,21.1c1.2,8.4,2.7,18.7,3.6,25.3c0.6,3.9,3.9,6.7,7.8,6.7c3.8,0,7-2.6,7.7-6.3l5.6-17.4
			c1.8-5.7,7.1-9.5,13-9.5c5.9,0,11.2,3.8,13,9.5L144,179c0.7,3.7,4,6.3,7.7,6.3c3.9,0,7.2-2.9,7.8-6.8c0.9-6.6,2.4-16.8,3.6-25.3
			c1.1-7.9,4.5-15.3,9.2-21.8C177,124.9,179.4,116.6,178.2,107.7z"/>
	</g>
</g>
<g id="Layer_4" class="st0">
	<g id="Layer_31_1_" class="st1">
		<path class="st3" d="M163.3,79c-1.4-5.8-4.6-9.8-9.4-11.8c-6.8-2.8-14.6-0.6-18.1,1.5c-6.4,3.8-14.4,3.8-20.9-0.1
			c-3.4-2-11.2-4.2-18-1.4c-4.7,2-8,6-9.4,11.8c-1.6,6.7-0.2,15.7,4.1,26.9c0.2,0.4,0.6,0.7,1,0.7h12.3c0.4,0,0.7-0.2,0.9-0.5l5-7.9
			H140l5,7.9c0.2,0.3,0.6,0.5,0.9,0.5h12.3c0.5,0,0.9-0.3,1-0.7C163.6,94.7,165,85.7,163.3,79z"/>
		<path class="st3" d="M155.8,135.7c-0.2-0.3-0.6-0.5-0.9-0.5H96.1c-0.4,0-0.7,0.2-0.9,0.5c-0.2,0.3-0.2,0.7-0.1,1
			c0.6,1.2,1.1,2.3,1.6,3.2c1.3,2.5,1.9,5.3,1.8,8.1c-0.3,9.7,0.8,27.3,12.3,36.7c0.8,0.7,1.8,1,2.7,1c0.5,0,1-0.1,1.5-0.3
			c1.4-0.5,2.5-1.7,2.8-3.2c0.6-3.1,1.8-11.4,0.2-22.8c-0.5-4,0.8-6.8,3.9-8.3c2.2-1,4.8-1,7,0c3.2,1.5,4.5,4.3,3.9,8.3
			c-1.6,11.4-0.4,19.7,0.2,22.8c0.3,1.5,1.3,2.7,2.8,3.2c1.4,0.5,3,0.2,4.2-0.7c11.5-9.4,12.7-27,12.3-36.7
			c-0.1-2.8,0.5-5.6,1.8-8.1c0.5-0.9,1-2,1.6-3.2C156,136.5,156,136.1,155.8,135.7z"/>
		<path class="st3" d="M145.9,125.1h-40.7c-0.6,0-1.1,0.5-1.1,1.1v10.1c0,0.6,0.5,1.1,1.1,1.1h40.7c0.6,0,1.1-0.5,1.1-1.1v-10.1
			C147,125.6,146.5,125.1,145.9,125.1z"/>
		<polyline class="st4" points="119,113.2 125.5,119.6 131.9,113.2 		"/>
		<line class="st4" x1="125.5" y1="103.6" x2="125.5" y2="119.6"/>
	</g>
</g>
<g id="Layer_5" class="st0">
	<g id="Layer_31_2_" class="st1">
		<path class="st5" d="M163.5,111.1c-0.3-7.4-3.2-11.6-7.6-14.7c-4.4-3-10.7-4.4-16.9-4.4c-5.8,0-11.5,1.2-15.3,2.9l-1.5,0.7
			l-1.5-0.7c-3.1-1.4-7.4-2.4-11.9-2.8l-7.9,0.1c-4.6,0.5-9.1,1.9-12.4,4.2c-4.4,3-7.3,7.3-7.6,14.6c0,0.6,0,1.1,0,1.6
			c0.1,10.4,2.5,14.1,5.4,19.4c3,5.2,6.4,11.8,6.3,24c0,14.2,2.4,22.5,5,26.9c2.7,4.4,3.6,5.1,6.4,5.1c3.1,0,4.1-3.1,4.2-4.7
			c0.6-6-0.4-15.4,2.5-25.4c0.8-2.8,1.9-6.2,4-9.4c2.8-4.2,10.4-7.5,15,0c2,3.2,3.1,6.6,4,9.4c2.3,7.6,2.9,15.6,2.4,21.7
			c-0.7,8.5,4.2,8.4,4.4,8.4c2.6,0,3.8-0.7,6.4-5.1c2.6-4.4,5-12.7,5-26.9c-0.1-12.2,3.3-18.8,6.3-24c2.9-5.2,5.2-9,5.3-19.4
			C163.6,112.2,163.6,111.6,163.5,111.1z"/>
		<path class="st6" d="M106.1,193.6c0,0-12.5-15.1-1.4-59.2c0,0,2.6-13.8,17.5-13s17.5,10.2,17.5,10.2s7.6,19.1,0.8,61.4"/>
		<path class="st6" d="M102.2,146.7c0,0,3.5-14.3,15.6-13.4"/>
		<path class="st6" d="M142.2,146.7c0,0-2.6-13.7-15.5-12.9"/>
		<path class="st7" d="M121.9,77.6V64.7c0-4.4-3.5-7.9-7.9-7.9c-4.4,0-7.9,3.5-7.9,7.9v12.8H121.9z"/>
		<polygon class="st7" points="157,68.4 121.9,65 121.9,71.2 157,80.3 		"/>
		<line class="st6" x1="114" y1="77.6" x2="105.5" y2="131.8"/>
		<polyline class="st7" points="180.5,68.4 157,68.4 157,80.3 180.5,80.3 		"/>
		<path class="st6" d="M70.5,146.5c0,0,10.7-3,21,0"/>
		<path class="st6" d="M152.9,146.5c0,0,10.7-3,21,0"/>
	</g>
</g>
<g id="Layer_6" class="st0">
	<g class="st1">
		<line class="st8" x1="144.7" y1="98.1" x2="155.9" y2="104"/>
		<path class="st9" d="M100.7,114.2c-7.4-2.1-12.9-8.9-12.9-16.9c0-9.7,7.9-17.6,17.6-17.6c8.8,0,16,6.4,17.3,14.8"/>
		<path class="st10" d="M144.7,98.1l0-8.1h-11.9c-0.7-2.5-1.6-4.8-2.9-6.9l8.4-8.4l-10.3-10.4l-8.4,8.4c-2.1-1.2-4.5-2.2-6.9-2.9
			V57.9H98.1v11.9c-2.5,0.7-4.8,1.6-6.9,2.9l-8.4-8.4L72.4,74.6l8.4,8.4c-1.2,2.1-2.2,4.5-2.9,6.9H66.1v14.6H78
			c0.7,2.5,1.6,4.8,2.9,6.9l-8.4,8.4l10.4,10.4l8.4-8.4c2.1,1.2,4.5,2.2,6.9,2.9v11.9h8.3"/>
		<path class="st9" d="M188.7,114.5c-0.3-7.8-3.4-12.4-8.1-15.6c-4.7-3.2-11.4-4.7-18-4.7c-6.1,0-12.2,1.3-16.3,3.1l-1.6,0.7
			l-1.6-0.7c-3.3-1.5-7.8-2.6-12.7-3l-8.4,0.1c-4.9,0.6-9.6,2-13.2,4.4c-4.7,3.2-7.8,7.8-8,15.6c0,0.6,0,1.2,0,1.7
			c0.1,11.1,2.6,15,5.7,20.6c3.2,5.5,6.8,12.5,6.7,25.5c0,15.1,2.5,23.9,5.3,28.6c2.8,4.7,3.8,5.4,6.9,5.4c3.3,0,4.4-3.3,4.5-5
			c0.6-6.4-0.5-16.4,2.7-27c0.9-2.9,2-6.6,4.2-10c3-4.5,11-8,16,0c2.1,3.4,3.3,7,4.2,10c2.4,8.1,3.1,16.6,2.6,23c-0.8,9,4.5,9,4.7,9
			c2.8,0,4-0.7,6.8-5.4c2.8-4.7,5.3-13.5,5.3-28.6c-0.1-13,3.6-20,6.7-25.5c3.1-5.6,5.6-9.6,5.7-20.6
			C188.7,115.7,188.7,115.1,188.7,114.5z"/>
	</g>
</g>
<g id="Layer_7" class="st0">
	<g class="st1">
		<path class="st2" d="M166.1,131.3c0,0,0-0.1,0.1-0.1c0.8-1.3,1.4-2.7,2.1-3.9c5.2-10.7,6.4-20,5-27.3c-0.3-1.5-0.7-2.9-1.2-4.3
			c6.1-2.1,9.2-4.8,9.2-8c0-3.3-3.4-6.1-9.9-8.2c-1.2-0.4-2.4,0.3-2.8,1.4c-0.4,1.2,0.3,2.4,1.4,2.8c5.6,1.8,6.9,3.5,6.9,4
			c0,0.4-1.2,2.1-6.4,3.8c-0.1,0-0.2,0.1-0.4,0.1c-0.8-1.4-1.8-2.7-2.9-3.7c-5.6-5.7-14-7.3-22-3.4c-9.3,4.5-20.1,4.5-29.3,0
			c-12.3-6-25.4,1-28,15.8c-0.3,1.5-0.4,3-0.5,4.6c-0.2,0-0.4,0.1-0.5,0.1c-9.1,2.3-13.7,5.4-13.6,9.4c0.1,4.3,5.8,7.7,17,9.9
			c1.3,0.3,2.7,0.6,4.2,0.8l65,9.5c1.7,0.3,3.5,0.6,5.1,1c10.3,2.2,12.3,4.8,12.3,5.4c0,0.7-2.9,3.9-16.5,6.2c0.2-1.5,0.4-3,0.9-4.6
			c0.2-1,0.6-1.9,1-3c-1-0.2-2.2-0.4-3.4-0.6l-64.6-9.4c0.3,0.6,0.6,1.1,0.9,1.7c6,10.7,5.8,14.7,6.3,21.1c0.1,1.3,0.3,2.8,0.5,4.4
			l-0.7,0.1c-14,2.3-21.1,5.9-21.1,10.8c0,4.9,7.1,8.5,21.1,10.8c0.1,0,0.2,0,0.4,0c1.1,0,2-0.8,2.2-1.9c0.2-1.2-0.6-2.3-1.8-2.5
			c-14.5-2.3-17.4-5.6-17.4-6.4c0-0.8,2.9-4.1,17.4-6.4l0.9-0.2l0,0c0.3,1.3,0.6,2.7,1.1,4.3c0,0.1,0,0.2,0.1,0.2
			c1.7,6,15.4,23.7,15.4,14c0-6.3,0.5-12,1.3-16.9c0.2-1.6,0.5-3.2,0.9-4.7l17.9-2.9c0.3,1.4,0.7,2.8,1,4.3
			c1.1,5.7,1.8,12.4,1.8,20.1c0,9.7,13.6-8,15.4-14c1.1-3.8,1.7-6.7,2-9.3c0.2-1.7,0.4-3.2,0.5-4.6l0.3,0l0.3,0
			c13.7-2.3,20.7-5.8,20.8-10.6C181.4,136.9,176.2,133.6,166.1,131.3z M168.2,109.9c0-1.9-1.5-4.1-3.4-4.1c1.9,0,3.4-2.3,3.4-4.1
			c0,1.9,1.5,4.1,3.4,4.1C169.7,105.8,168.2,108.1,168.2,109.9z M109.2,90.9c0,3.8,3.1,8.4,6.9,8.4c-1.4,0-2.6,0.6-3.7,1.5
			c-1.4,1.2-2.5,3.1-3,4.9c-0.2,0.7-0.3,1.4-0.3,2c0-0.6-0.1-1.3-0.2-1.9c-0.4-1.5-1.1-3-2.2-4.2c-1.2-1.4-2.8-2.3-4.5-2.3
			C106.1,99.4,109.2,94.8,109.2,90.9z M77.7,114.3c0-0.5,1.7-2.8,9.9-4.9c0.1,1.4,0.4,2.9,0.7,4.4c0,0.3,0.1,0.7,0.2,1
			c0.4,1.6,0.8,3.2,1.4,4.9C80,117.5,77.7,115,77.7,114.3z M126.7,142.4c1.7-3,6-3,7.8,0c0.6,1.1,1.3,2.5,2,4.1
			c0.5,1.2,1,2.7,1.5,4.2l-15.6,2.5c0.5-1.7,1-3.3,1.5-4.7C124.8,146,125.8,143.9,126.7,142.4z"/>
		<path class="st2" d="M179.7,114.4c0,4.1-3.3,9-7.4,9c4.1,0,7.4,4.9,7.4,9c0-4.1,3.3-9,7.4-9C183,123.4,179.7,118.5,179.7,114.4z"
			/>
		<path class="st2" d="M83.3,157.5c0-4.1,3.3-9,7.4-9c-4.1,0-7.4-4.9-7.4-9c0,4.1-3.3,9-7.4,9C80,148.5,83.3,153.4,83.3,157.5z"/>
		<path class="st2" d="M83.3,94c-5.4,0-9.7-6.4-9.7-11.8c0,5.4-4.3,11.8-9.7,11.8c5.4,0,9.7,6.4,9.7,11.8C73.6,100.5,78,94,83.3,94z
			"/>
		<path class="st2" d="M116.1,76c0-3.4,2.7-7.4,6.1-7.4c-3.4,0-6.1-4-6.1-7.4c0,3.4-2.7,7.4-6.1,7.4C113.4,68.6,116.1,72.6,116.1,76
			z"/>
		<path class="st2" d="M164.8,76c0-1.9,1.5-4.1,3.4-4.1c-1.9,0-3.4-2.2-3.4-4.1c0,1.9-1.5,4.1-3.4,4.1
			C163.3,71.9,164.8,74.1,164.8,76z"/>
		<path class="st2" d="M169.3,158.8c0,5.4-4.3,11.8-9.7,11.8c5.4,0,9.7,6.4,9.7,11.8c0-5.4,4.3-11.8,9.7-11.8
			C173.7,170.6,169.3,164.2,169.3,158.8z"/>
	</g>
</g>
<g id="Layer_8">
	<g id="Layer_31">
		<g>
			<path class="st3" d="M185.9,99.8V83.9L185,83c-0.7-0.7-16.8-16.4-60.5-16.4c-43.9,0-58.1,16.1-58.7,16.8l-0.7,0.8V99
				c0,2.2,1.3,4.6,2.1,5.9v9.6c-0.1,1.2-0.3,4.5,1.5,6.6c0.9,1.1,2.3,1.7,3.7,1.7h10.8l0.4-0.1c0.1,0.1,0.1,0.2,0.2,0.2
				c1,1.1,2.4,1.8,4,1.8H100l0.2,0c0.2,0.5,0.5,1,0.9,1.4c0.8,1,2.3,2.1,4.8,2.1H122l0.3-0.1c0.8-0.2,1.9-0.7,2.9-1.5
				c1,0.9,2.1,1.3,2.9,1.5l16.5,0.1c2.5,0,4-1.2,4.8-2.1c0.4-0.5,0.7-1,0.9-1.5l12.4,0.1c1.6,0,3-0.6,4-1.8c0.1-0.1,0.1-0.2,0.2-0.3
				c0,0,0,0,0.1,0l11.2,0.1c1.5,0,2.8-0.6,3.7-1.7c1.8-2.1,1.7-5.4,1.5-6.6v-9.1C185.8,103.1,185.9,100.2,185.9,99.8 M73.1,116.9
				c-0.1-0.5-0.1-1.2,0-1.8l0-11.1c0-1,0.3-3.2,2.4-3.2c3.3,0,5.9,4,6.6,5.5v8.9c0,0.9-0.1,1.4-0.3,1.7
				C81.8,116.9,73.1,116.9,73.1,116.9z M88.2,118.8c-0.1-0.5-0.2-1.6-0.1-2.3l0-0.9c0-0.1,0-0.2,0-0.3V105v0v-1
				c0-0.4,0.2-2.2,1.1-3.2c0.3-0.3,0.8-0.7,2.1-0.7c4.2,0,7.1,4.7,8,6.3v10.3c0,1.2-0.3,1.9-0.5,2.2L88.2,118.8L88.2,118.8z
				 M121.2,122.3h-15.3c-0.2,0-0.2,0-0.3,0l0,0c-0.3-0.3-0.5-1.7-0.3-2.9l0-14.4c0,0,0.1-2.1,1.4-3.3c0.9-0.9,2.2-1.3,3.9-1.3
				c6.3,0,10.5,5.6,11.7,7.4v11.8C122.3,121.4,121.6,122.1,121.2,122.3 M144.9,122.3c0,0-0.1,0-0.3,0h-15.3c-0.3-0.2-1-0.9-1-2.7
				v-11.7c1.2-1.9,5.4-7.4,11.7-7.4c4.6,0,5.2,3.3,5.2,4.7C145.1,105.1,145.2,122,144.9,122.3 M162.3,118.8h-10.6
				c-0.2-0.3-0.5-1-0.5-2.2v-10.3c0.9-1.6,3.9-6.3,8-6.3c2.8,0,3.2,2.7,3.2,3.9v12.2l0,0.4C162.5,117.2,162.5,118.2,162.3,118.8
				 M177.5,116.9h-8.8c-0.1-0.3-0.3-0.8-0.3-1.7v-8.9c0.8-1.4,3.3-5.5,6.6-5.5c2.1,0,2.4,2.2,2.4,3.2v10.7l0,0.4
				C177.6,115.6,177.5,116.4,177.5,116.9"/>
			<path class="st3" d="M174.8,138.5c0-3.7-2.9-6.8-6.4-6.8h-7.2c-1.7,0-3.3,0.7-4.4,1.9H92.6c-1.2-1.2-2.7-1.9-4.4-1.9H81
				c-3.5,0-6.4,3-6.4,6.8v3.8c-1.1,1.2-3,3.8-3,7.8v16.5c0,0.8,0.3,1.5,0.8,2.1c0.6,0.6,14.8,15.1,52.8,15.1
				c38.1,0,51-15.7,51.6-16.4c0.4-0.5,0.6-1.2,0.6-1.8v-14.4c0.2-1.9-0.1-5.2-2.5-7.6L174.8,138.5L174.8,138.5z M161.3,137.7h7.2
				c0.1,0,0.5,0.3,0.5,0.8v11.5c0,0.5-0.1,3.2-2,3.2c-3.9,0-5.5-2.1-6.1-3.1v-11.7C160.8,138,161.1,137.7,161.3,137.7 M154,139.9
				c0.3,0,0.6,0,0.8,0v11.1v2.1c0,0.4-0.1,3.5-2.5,3.5c-4.6,0-6.5-2.3-7-3.3v-13.3c0.3,0,0.5,0,0.8,0H154z M129.1,139.9h8.9
				c0.5,0,0.9,0,1.3-0.1v14.1v1.8c-0.1,0.9-1,3.2-5.6,3.2c-4.8,0-5.8-3.3-6-4.3v-14.8C128.2,139.9,128.6,139.9,129.1,139.9
				 M110.2,139.8c0.4,0,0.9,0.1,1.3,0.1h8.9c0.5,0,0.9,0,1.3-0.1v15.1v0.8c-0.1,0.5-0.7,3.2-5.6,3.2c-4.8,0-5.8-3.3-6-4.3V139.8z
				 M95.4,139.9h7.9c0.3,0,0.6,0,0.8,0v13.3c-0.6,1-2.5,3.3-7,3.3c-2.3,0-2.5-2.7-2.5-3.5l0-13.2C94.8,139.9,95.1,139.9,95.4,139.9
				 M80.5,138.5c0-0.5,0.3-0.8,0.5-0.8h7.2c0.2,0,0.5,0.3,0.5,0.8v11.7c-0.5,0.9-2.1,3.1-6.1,3.1c-1.9,0-2-2.7-2-3.2
				C80.5,150.1,80.5,138.5,80.5,138.5z"/>
		</g>
	</g>
</g>
</svg>
