<?xml version="1.0" encoding="utf-8"?>
<!-- Generator: Adobe Illustrator 24.0.0, SVG Export Plug-In . SVG Version: 6.00 Build 0)  -->
<svg version="1.1" id="Layer_1" xmlns="http://www.w3.org/2000/svg" xmlns:xlink="http://www.w3.org/1999/xlink" x="0px" y="0px"
	 viewBox="0 0 250 250" style="enable-background:new 0 0 250 250;" xml:space="preserve">
<style type="text/css">
	.st0{fill:#030303;}
</style>
<g>
	<path class="st0" d="M153.9,156.3c-26.3,0-47.6-21.4-47.6-47.6c0-26.3,21.4-47.6,47.6-47.6c26.3,0,47.6,21.4,47.6,47.6
		C201.5,135,180.1,156.3,153.9,156.3z M153.9,67.9c-22.5,0-40.8,18.3-40.8,40.8s18.3,40.8,40.8,40.8c22.5,0,40.8-18.3,40.8-40.8
		S176.4,67.9,153.9,67.9z"/>
	<path class="st0" d="M155.1,136.8C155.1,136.8,155.1,136.8,155.1,136.8c-2.8,0-5.8-0.3-8.8-0.9c-6.5-1.3-14.3-6.8-18.1-12.8
		c-4.4-7-1.5-16.2,4.1-20.3c4.1-3,12-4.4,16.6-2.7c3.5,1.3,5.3,4.6,6.7,7.2c0.5,1,1,1.9,1.5,2.5l0.2,0.2c1.5,2,1.7,2.1,2.5,2
		c0.7,0,1.4-0.5,2.5-1.3c0.9-0.7,1.9-1.4,3.2-1.9c3.9-1.6,7.9-0.7,10.4,2.3c2.3,2.8,3.2,7,2.5,11.1c-0.9,4.8-4.8,8.7-7.9,10.6
		C169.5,133.6,164.4,136.8,155.1,136.8z M144.1,106.1c-3.1,0-6.2,1.1-7.6,2.2c-3,2.2-4.7,7.5-2.4,11.2c2.8,4.4,8.9,8.8,13.7,9.8
		c2.6,0.5,5.1,0.8,7.4,0.8h0c7.6,0,11.3-2.6,11.4-2.8l0.3-0.2c2.5-1.5,4.5-4,4.9-6.1c0.4-2,0-4.3-1-5.5c-0.5-0.6-1-0.7-1.3-0.7
		c-0.4,0-0.8,0.1-1.3,0.3c-0.5,0.2-1.1,0.7-1.8,1.1c-1.5,1.1-3.6,2.6-6.5,2.6c-4.3,0-6.2-2.5-7.9-4.6l-0.2-0.2
		c-0.8-1-1.4-2.2-2.1-3.4c-0.9-1.7-2-3.7-3.1-4.1C146.2,106.3,145.4,106.1,144.1,106.1z"/>
	<path class="st0" d="M143.4,110.2c-1.3,0-2.6-0.8-3.2-2.1c-2.8-6.7-1.8-13.4-1.8-13.6c0.3-1.9,2.1-3.1,3.9-2.8
		c1.9,0.3,3.1,2,2.8,3.9c0,0-0.7,5.1,1.3,10c0.7,1.7-0.1,3.7-1.8,4.5C144.3,110.1,143.8,110.2,143.4,110.2z"/>
	<path class="st0" d="M135.9,113c-0.6,0-1.2-0.2-1.8-0.5c-3-1.8-6.1-4.4-8.9-7.3c-1.3-1.4-1.2-3.5,0.1-4.8c1.4-1.3,3.5-1.2,4.8,0.1
		c2.3,2.4,5,4.7,7.4,6.1c1.6,1,2.1,3.1,1.2,4.7C138.1,112.5,137,113,135.9,113z"/>
	<path class="st0" d="M126.9,129.7c-1.1,0-2.1-0.5-2.8-1.4c-1.1-1.5-0.8-3.7,0.8-4.8c0.6-0.5,4.1-4,6.9-6.9c1.3-1.4,3.5-1.4,4.8-0.1
		c1.4,1.3,1.4,3.5,0.1,4.8c-3,3.1-6.7,7-7.8,7.7C128.3,129.5,127.6,129.7,126.9,129.7z"/>
	<path class="st0" d="M137.9,139.7c-0.3,0-0.7,0-1-0.2c-1.8-0.6-2.8-2.5-2.3-4.3l3.1-10c0.6-1.8,2.5-2.8,4.3-2.3
		c1.8,0.6,2.8,2.5,2.3,4.3l-3.1,10C140.7,138.8,139.4,139.7,137.9,139.7z"/>
	<path class="st0" d="M150.1,142.8c-1.7,0-3.2-1.3-3.4-3c-0.1-0.9-1-8.5-0.9-11.3c0-1.9,1.7-3.3,3.5-3.3c1.9,0,3.4,1.6,3.3,3.5
		c0,1.7,0.5,7.1,0.9,10.3c0.2,1.9-1.1,3.6-3,3.8C150.4,142.7,150.2,142.8,150.1,142.8z"/>
	<path class="st0" d="M166.4,141.5c-1.3,0-2.5-0.7-3.1-1.9c-0.7-1.3-3.9-6.4-5.7-9.2c-1-1.6-0.6-3.7,1-4.7c1.6-1,3.7-0.6,4.7,1
		c0.5,0.8,5,7.8,6.1,9.9c0.8,1.7,0.2,3.7-1.5,4.6C167.4,141.4,166.9,141.5,166.4,141.5z"/>
	<path class="st0" d="M178.2,134c-0.6,0-1.3-0.2-1.8-0.5c-0.7-0.4-5.4-2.3-9.3-3.8c-1.8-0.7-2.6-2.6-2-4.4c0.7-1.8,2.6-2.6,4.4-2
		c4.2,1.6,9.4,3.6,10.6,4.4c1.6,1,2.1,3.1,1,4.7C180.4,133.4,179.3,134,178.2,134z"/>
	<path class="st0" d="M171.7,125.1c-1.1,0-2.2-0.5-2.9-1.5c-1-1.6-0.6-3.7,1-4.7c3.4-2.3,7.5-5.1,8.4-5.9c1.1-1.3,2.9-1.6,4.4-0.7
		c1.6,1,2.1,3.1,1.2,4.7c-0.4,0.7-0.9,1.5-10.2,7.6C173,124.9,172.3,125.1,171.7,125.1z"/>
	<path class="st0" d="M169.9,118.9c-0.3,0-0.6,0-0.9-0.1c-1.8-0.5-2.9-2.4-2.3-4.2l3.1-10.6c0.5-1.8,2.4-2.9,4.2-2.3
		c1.8,0.5,2.9,2.4,2.3,4.2l-3.1,10.6C172.7,118,171.3,118.9,169.9,118.9z"/>
	<path class="st0" d="M150.3,115.4c-0.1,0-0.3,0-0.4,0c-1.9-0.2-3.2-1.9-3-3.8c0.4-2.9,1.3-9.9,2.5-12.2c0.9-1.7,2.9-2.3,4.6-1.5
		c1.7,0.9,2.3,2.9,1.5,4.6c-0.5,1-1.3,6-1.8,10C153.4,114.1,152,115.4,150.3,115.4z"/>
	<path class="st0" d="M160.7,122.4c-0.1,0-0.2,0-0.3,0c-1.9-0.2-3.3-1.8-3.1-3.7l0.8-8.8c0.2-1.9,1.8-3.2,3.7-3.1
		c1.9,0.2,3.3,1.8,3.1,3.7l-0.8,8.8C163.9,121.1,162.4,122.4,160.7,122.4z"/>
	<path class="st0" d="M166.4,87.5c-1.5,0-2.9-1-3.3-2.5c-0.7-2.5-4.5-2.4-4.6-2.4c0,0-0.1,0-0.1,0c-1.8,0-3.3-1.4-3.4-3.3
		c-0.1-1.9,1.4-3.5,3.2-3.5c3.2-0.2,9.7,1.2,11.5,7.4c0.5,1.8-0.6,3.7-2.4,4.2C167,87.5,166.7,87.5,166.4,87.5z"/>
	<path class="st0" d="M141.5,84.7c-0.1,0-0.1,0-0.2,0c-1.8-0.1-3.2-1.5-3.2-3.3c-1-1.4-0.8-3.4,0.6-4.5c1.4-1.2,3.6-1.1,4.8,0.3
		c1,1.2,1.5,2.7,1.4,4.3C144.8,83.3,143.3,84.7,141.5,84.7z"/>
	<path class="st0" d="M167.8,99.4c-1.1,0-2.2-0.6-2.9-1.6c-1-1.6-0.5-3.7,1.1-4.7c2.6-1.6,5.4-2,7.9-2.3c1.9-0.2,3.7,1.1,3.9,2.9
		c0.2,1.9-1,3.6-2.9,3.8c-2.2,0.3-4,0.5-5.3,1.3C169.1,99.3,168.5,99.4,167.8,99.4z"/>
	<path class="st0" d="M184.1,106.2c-0.8,0-1.6-0.3-2.2-0.8c-1.4-1.2-1.6-3.4-0.3-4.8c0.5-0.6,1.1-1.2,1.6-1.8l1.2-1.3
		c1.2-1.4,3.4-1.5,4.8-0.3c1.4,1.2,1.5,3.4,0.3,4.8c-0.4,0.5-0.8,0.9-1.2,1.4c-0.5,0.6-1,1.1-1.5,1.7
		C186,105.8,185,106.2,184.1,106.2z"/>
	<path class="st0" d="M109.7,108.7c0-14.2,6.7-26.8,17.1-34.9c-2.8-0.5-5.8-0.8-8.8-0.8h-0.2c-5.5,0-11.2,0.9-15.8,2.5
		c6.4,4.3,10.6,8.6,10.9,8.9c1.2,1.2,1.1,3.1-0.1,4.3c-0.6,0.6-1.4,0.9-2.1,0.9c-0.8,0-1.6-0.3-2.2-0.9
		c-0.1-0.1-21.6-25.6-50.3-10.1c-6.9,3.7-9.7,10.6-10,19.2l0,1.9c0.1,12.1,2.8,17,6,22.7l0.5,1c3.5,6,6.9,13,6.8,25.9
		c0,18.1,3.3,27.6,6.2,32.3c3.1,5.2,4.9,7.3,10,7.3c4.8,0,7.6-4.1,7.9-8.2c0.2-2.1,0.3-4.6,0.3-7.2c0.1-6,0.2-13.6,2.5-21.4
		c0.9-2.9,2-6.6,4.1-9.7c1.3-1.9,3.9-3.8,6.7-3.8c2.1,0,3.9,1.3,5.4,3.7c2,3.2,3.2,6.7,4.2,10c2.3,7.6,3.3,16.5,2.6,23.7
		c-0.4,4.6,0.5,8.1,2.6,10.4c2.1,2.3,4.7,2.5,5.5,2.5c4.8,0,6.9-2.2,10-7.3c2.8-4.7,6.2-14.2,6.2-32.3c0-0.1,0-0.3,0-0.4
		C120.3,142,109.7,126.6,109.7,108.7"/>
</g>
</svg>
