<svg width="156" height="73" viewBox="0 0 156 73" fill="none" xmlns="http://www.w3.org/2000/svg">
<path d="M106.612 56.2388C106.612 57.7015 105.428 58.8856 103.965 58.8856H20.4876C19.0249 58.8856 17.8408 57.7015 17.8408 56.2388V3.12937C17.8408 1.66668 19.0249 0.482605 20.4876 0.482605H103.965C105.428 0.482605 106.612 1.66668 106.612 3.12937V56.2388Z" fill="#0176C4"/>
<path d="M103.408 3.75624H21.0449V55.612H103.408V3.75624Z" fill="#3C8DF9"/>
<path d="M21.0449 3.75624V55.612H103.408L21.0449 3.75624Z" fill="#3C8DF9"/>
<path d="M91.1492 14.796H38.1094V48.194H91.1492V14.796Z" fill="#BCBEC0"/>
<path d="M89.5466 10.7214H36.5068V46.209H89.5466V10.7214Z" fill="#CBE9FA"/>
<path d="M89.5466 10.7214H36.5068V14.0995H89.5466V10.7214Z" fill="#0176C4"/>
<path d="M70.6017 37.0149H55.4873V42.6916H70.6017V37.0149Z" fill="#00B6EA"/>
<path d="M70.6017 39.8707H55.4873V42.6916H70.6017V39.8707Z" fill="#2391C9"/>
<path d="M57.9238 38.6169H58.2373L58.481 40.2189L58.7597 38.6169H59.0731L58.6203 40.811H58.4114L57.9238 38.6169Z" fill="white"/>
<path d="M59.2129 38.6169H59.4915V40.811H59.2129V38.6169Z" fill="white"/>
<path d="M59.8398 38.6169H60.6408V38.8955H60.1533V39.5224H60.5712V39.7662H60.1533V40.5323H60.6408V40.811H59.8398V38.6169Z" fill="white"/>
<path d="M61.3026 40.811H61.0589L60.6758 38.6169H60.9544L61.1982 40.2537L61.4419 38.6169H61.6857L61.9295 40.2189L62.1385 38.6169H62.4519L62.0688 40.811H61.825L61.5813 39.209L61.3026 40.811Z" fill="white"/>
<path d="M63.1832 38.6169H63.427L63.7405 40.2189L64.0191 38.6169H64.2977L64.5066 40.811H64.228L64.1584 39.3134L63.8798 40.811H63.6708L63.3922 39.3134L63.3225 40.811H63.0439L63.1832 38.6169Z" fill="white"/>
<path d="M65.2369 38.6169C65.4459 38.6169 65.5852 38.7214 65.6548 38.8955C65.7593 39.0697 65.7941 39.3831 65.7941 39.7662C65.7941 40.0796 65.7593 40.3582 65.6896 40.5323C65.62 40.7413 65.4807 40.8458 65.2717 40.8458C65.0976 40.8458 64.9583 40.7761 64.8538 40.602C64.7493 40.4627 64.6797 40.1841 64.6797 39.7662C64.6797 39.4179 64.7145 39.1393 64.7842 38.9304C64.8886 38.7214 65.0279 38.6169 65.2369 38.6169ZM65.2369 38.8955C65.1324 38.8955 65.0628 38.9652 65.0279 39.1393C64.9931 39.3134 64.9931 39.4876 64.9931 39.7314C64.9931 40.0448 65.0279 40.2886 65.0628 40.4279C65.0976 40.5672 65.1672 40.6368 65.2717 40.6368C65.3762 40.6368 65.411 40.5672 65.4807 40.4279C65.5155 40.2886 65.5503 40.0448 65.5503 39.7662C65.5503 39.4876 65.5155 39.2438 65.4807 39.1393C65.411 38.9652 65.3414 38.8955 65.2369 38.8955Z" fill="white"/>
<path d="M66.1074 38.6169H66.4905C66.6995 38.6169 66.8039 38.6518 66.9084 38.7562C66.9781 38.8259 67.0129 39 67.0129 39.209C67.0129 39.3483 66.9781 39.4876 66.9432 39.5572C66.8736 39.6617 66.8039 39.7314 66.7343 39.7314L67.1522 40.811H66.8388L66.4209 39.6965V40.811H66.1422V38.6169H66.1074ZM66.6298 39.4876C66.6646 39.4179 66.6995 39.3483 66.6995 39.209C66.6995 39.1045 66.6995 39 66.6646 38.9652C66.6298 38.8955 66.5602 38.8955 66.4557 38.8955H66.4209H66.386V39.6269C66.5253 39.5921 66.595 39.5572 66.6298 39.4876Z" fill="white"/>
<path d="M67.292 38.6169H68.093V38.8955H67.6054V39.5224H68.0233V39.7662H67.6054V40.5323H68.093V40.811H67.292V38.6169Z" fill="white"/>
<path d="M82.9297 12.393C82.9297 12.9503 82.477 13.3682 81.9546 13.3682C81.3974 13.3682 80.9795 12.9154 80.9795 12.393C80.9795 11.8358 81.4322 11.4179 81.9546 11.4179C82.477 11.4179 82.9297 11.8707 82.9297 12.393Z" fill="#CBE9FA"/>
<path d="M85.5762 12.393C85.5762 12.9503 85.1235 13.3682 84.6011 13.3682C84.0439 13.3682 83.626 12.9154 83.626 12.393C83.626 11.8358 84.0787 11.4179 84.6011 11.4179C85.1235 11.4179 85.5762 11.8707 85.5762 12.393Z" fill="#CBE9FA"/>
<path d="M88.2237 12.393C88.2237 12.9503 87.771 13.3682 87.2486 13.3682C86.6913 13.3682 86.2734 12.9154 86.2734 12.393C86.2734 11.8358 86.7262 11.4179 87.2486 11.4179C87.771 11.4179 88.2237 11.8707 88.2237 12.393Z" fill="#CBE9FA"/>
<path d="M55.2089 20.7513H40.6865V35.5871H55.2089V20.7513Z" fill="white"/>
<path d="M52.1104 30.8856C52.0756 30.398 51.5532 30.2239 51.5532 30.2239L49.9164 29.6667L49.2199 29.4229C48.6975 29.7712 48.1054 29.9105 47.8965 29.9453C47.6875 29.9105 47.1303 29.7712 46.5731 29.4229L45.8766 29.6667L44.2398 30.2239C44.2398 30.2239 43.7174 30.3632 43.6825 30.8856L43.1602 33.7065H47.8616H48.0009H52.6328L52.1104 30.8856Z" fill="#B3D8F3"/>
<path d="M50.4037 25.7662C50.3689 27.4727 49.2197 28.7961 47.8615 28.7961C46.5032 28.7612 45.3888 27.3682 45.4236 25.6966C45.4585 23.9901 46.6077 22.6667 47.9659 22.7015C49.359 22.6667 50.4386 24.0597 50.4037 25.7662Z" fill="#B3D8F3"/>
<path d="M85.4037 22.8756C85.4037 23.1891 85.1599 23.4329 84.8465 23.4329H58.5182C58.2047 23.4329 57.9609 23.1891 57.9609 22.8756C57.9609 22.5622 58.2047 22.3184 58.5182 22.3184H84.8465C85.1599 22.3184 85.4037 22.5622 85.4037 22.8756Z" fill="#A1D5F3"/>
<path d="M85.4037 26.4279C85.4037 26.7413 85.1599 26.9851 84.8465 26.9851H58.5182C58.2047 26.9851 57.9609 26.7413 57.9609 26.4279C57.9609 26.1145 58.2047 25.8707 58.5182 25.8707H84.8465C85.1599 25.8359 85.4037 26.1145 85.4037 26.4279Z" fill="#A1D5F3"/>
<path d="M85.4037 29.9453C85.4037 30.2587 85.1599 30.5025 84.8465 30.5025H58.5182C58.2047 30.5025 57.9609 30.2587 57.9609 29.9453C57.9609 29.6319 58.2047 29.3881 58.5182 29.3881H84.8465C85.1599 29.3881 85.4037 29.6319 85.4037 29.9453Z" fill="#A1D5F3"/>
<path d="M85.4037 33.4975C85.4037 33.811 85.1599 34.0548 84.8465 34.0548H58.5182C58.2047 34.0548 57.9609 33.811 57.9609 33.4975C57.9609 33.1841 58.2047 32.9403 58.5182 32.9403H84.8465C85.1599 32.9403 85.4037 33.1841 85.4037 33.4975Z" fill="#A1D5F3"/>
<path d="M69.5917 58.8856H54.8604V67.9751H69.5917V58.8856Z" fill="#2578BD"/>
<path d="M73.4233 67.9751H51.0303V71.4577H73.4233V67.9751Z" fill="#0176C4"/>
<path d="M114.17 31.6518V25.4876C114.17 24.6518 113.473 23.9552 112.637 23.9552H100.239C99.4035 23.9552 98.707 24.6518 98.707 25.4876V31.6518H114.17Z" stroke="#FFBD1C" stroke-width="3" stroke-miterlimit="10"/>
<path d="M133.15 69.0547C133.15 70.3781 132.071 71.4577 130.747 71.4577H82.1305C80.8071 71.4577 79.7275 70.3781 79.7275 69.0547V34.2637C79.7275 32.9403 80.8071 31.8607 82.1305 31.8607H130.747C132.071 31.8607 133.15 32.9403 133.15 34.2637V69.0547Z" fill="#FFBD1C"/>
<path d="M86.031 68.4975C84.7076 68.4975 83.628 67.4179 83.628 66.0945V58.8508C83.628 57.5274 84.7076 56.4478 86.031 56.4478H133.15V34.2289C133.15 32.9055 132.071 31.8259 130.747 31.8259H82.1305C80.8071 31.8259 79.7275 32.9055 79.7275 34.2289V69.0199C79.7275 70.3433 80.8071 71.4229 82.1305 71.4229H130.747C132.071 71.4229 133.15 70.3433 133.15 69.0199V68.4627H86.031V68.4975Z" fill="#FFBD1C"/>
<path d="M134.3 52.1642C134.3 53.5572 133.185 54.6717 131.792 54.6717H81.0856C79.6926 54.6717 78.5781 53.5572 78.5781 52.1642V32.1741C78.5781 30.7811 79.6926 29.6667 81.0856 29.6667H131.792C133.185 29.6667 134.3 30.7811 134.3 32.1741V52.1642Z" fill="#FFBD1C"/>
<path d="M133.533 50.0746C131.757 52.2687 129.528 52.199 126.882 52.199C116.608 52.1642 117.2 52.1294 108.354 52.1642C103.13 52.199 99.8567 52.1642 94.9463 50.1095C90.001 48.0199 88.1552 43.3184 88.2249 38.199C88.2597 35.3433 88.7473 32.5572 90.001 29.9801C90.0358 29.8756 90.1055 29.7712 90.1403 29.7015H81.0856C79.6926 29.7015 78.5781 30.8159 78.5781 32.209V52.199C78.5781 53.592 79.6926 54.7065 81.0856 54.7065H131.792C133.185 54.7065 134.3 53.592 134.3 52.199V48.995C134.056 49.3433 133.812 49.7264 133.533 50.0746Z" fill="#FFBD1C"/>
<path d="M109.887 53.801H102.991V59.6169H109.887V53.801Z" fill="#0176C4"/>
<path d="M145.617 53.4528H143.005V57.3184H145.617V53.4528Z" fill="#2578BD"/>
<path opacity="0.5" d="M152.651 43.2488C152.651 47.8458 148.925 51.607 144.293 51.607C139.696 51.607 135.935 47.8806 135.935 43.2488C135.935 38.6518 139.661 34.8906 144.293 34.8906C148.89 34.8906 152.651 38.6169 152.651 43.2488Z" fill="#CBE9FA"/>
<path opacity="0.5" d="M139.104 36.7015C137.188 38.2338 135.935 40.602 135.935 43.2488C135.935 47.8458 139.661 51.607 144.293 51.607C146.278 51.607 148.089 50.9105 149.517 49.796C145.964 45.4776 142.586 41.0547 139.104 36.7015Z" fill="#CBE9FA"/>
<path d="M144.292 32.3831C138.302 32.3831 133.427 37.2587 133.427 43.2488C133.427 49.2388 138.302 54.1144 144.292 54.1144C150.282 54.1144 155.158 49.2388 155.158 43.2488C155.158 37.2239 150.282 32.3831 144.292 32.3831ZM144.292 51.607C139.695 51.607 135.934 47.8806 135.934 43.2488C135.934 38.6518 139.661 34.8906 144.292 34.8906C148.889 34.8906 152.651 38.6169 152.651 43.2488C152.651 47.8458 148.889 51.607 144.292 51.607Z" fill="#0176C4"/>
<path opacity="0.3" d="M144.292 32.3831C138.302 32.3831 133.427 37.2587 133.427 43.2488C133.427 49.2388 138.302 54.1144 144.292 54.1144C150.282 54.1144 155.158 49.2388 155.158 43.2488C155.158 37.2239 150.282 32.3831 144.292 32.3831ZM144.292 52.9304C138.929 52.9304 134.611 48.612 134.611 43.2488C134.611 37.8856 138.929 33.5672 144.292 33.5672C149.656 33.5672 153.974 37.8856 153.974 43.2488C153.974 48.612 149.621 52.9304 144.292 52.9304Z" fill="#00B6EA"/>
<path d="M147.01 56.8309H141.577V71.4577H147.01V56.8309Z" fill="#017EC8"/>
<path d="M143.562 69.995V56.8309H141.577V71.4577H147.01V69.995H143.562Z" fill="#0176C4"/>
<path d="M150.805 44.5025C150.736 44.9901 150.631 45.4776 150.457 45.9304" stroke="white" stroke-width="3" stroke-miterlimit="10"/>
<path d="M143.91 36.5622C147.776 36.5622 150.875 39.6965 150.875 43.5274" stroke="white" stroke-width="3" stroke-miterlimit="10"/>
<path d="M1.60645 71.4578H151.358" stroke="#0176C4" stroke-width="3" stroke-miterlimit="10" stroke-linecap="round"/>
</svg>
