<svg width="205" height="82" viewBox="0 0 205 82" fill="none" xmlns="http://www.w3.org/2000/svg">
<path d="M108.743 28.5196C108.207 25.4894 107.134 22.994 104.987 20.6767C103.378 19.0725 101.589 18.003 99.6218 17.29C96.5812 16.2205 93.5407 16.0423 90.5002 16.7553C86.3866 17.6465 83.3461 19.9637 81.1998 23.5287C79.9478 25.8459 79.2324 28.1631 79.2324 30.8369C79.2324 32.4411 79.4113 34.0453 79.9478 35.6495C80.8421 38.5015 82.4518 40.8187 84.9557 42.6012C87.6386 44.7402 90.6791 45.6314 94.0773 45.6314C94.7927 45.6314 95.5081 45.6314 96.2235 45.4532C98.5486 45.0967 100.874 44.3837 102.841 42.9577C105.345 41.1752 107.134 38.858 108.207 36.006C109.101 33.6888 109.28 31.1934 108.743 28.5196ZM101.589 35.1148C100.516 37.432 98.7275 39.0363 96.2235 39.571C93.3619 40.284 90.8579 39.571 88.7117 37.7885C87.4597 36.719 86.5654 35.1148 86.0289 33.5106C85.85 32.6193 85.6712 31.7281 85.6712 31.0151C85.6712 28.8761 86.2077 26.9154 87.2808 25.3112C88.8905 23.1722 91.0368 22.1027 93.7196 21.9245C95.5081 21.9245 97.2967 22.281 98.7275 23.3505C100.516 24.5982 101.589 26.2024 102.126 28.1631C102.841 30.6586 102.662 32.9758 101.589 35.1148Z" fill="#FFBD1C"/>
<path d="M140.221 31.1934C140.221 29.4109 140.221 27.8067 140.221 26.0242C140.221 23.3505 140.221 20.4985 140.221 17.8248C140.221 17.1118 140.221 17.1118 139.506 17.1118C137.896 17.1118 136.107 17.1118 134.498 17.1118C133.961 17.1118 133.961 17.1118 133.961 17.6465C133.961 18.003 133.961 18.5378 133.961 18.8943C133.961 19.0725 133.961 19.2508 133.782 19.429C133.604 19.429 133.425 19.2508 133.425 19.2508L133.246 19.0725C132.173 18.1813 131.1 17.4683 129.669 16.9335C126.449 15.8641 123.23 16.2205 120.189 17.6465C117.864 18.716 116.076 20.3202 114.466 22.4592C112.678 24.9547 111.783 27.8066 111.604 30.8369C111.604 32.6193 111.783 34.2236 112.32 35.8278C113.751 39.9275 116.612 42.9577 120.726 44.7402C123.051 45.6314 125.376 45.9879 127.701 45.6314C129.49 45.4532 131.1 44.7402 132.352 43.4925C132.709 43.136 133.067 42.9577 133.246 42.6012C133.425 42.423 133.604 42.423 133.604 42.7795C133.604 43.136 133.604 43.6707 133.604 44.0272C133.604 45.4532 133.604 46.8792 133.067 48.3051C132.53 50.0876 131.457 51.3354 129.848 52.2266C128.953 52.7613 128.059 52.9396 126.986 53.1178C124.482 53.4743 122.157 52.9396 120.368 51.1571C119.474 50.4441 118.937 49.5529 118.401 48.6616C118.043 48.1269 118.043 48.1269 117.507 48.3051C116.791 48.6616 116.076 48.8399 115.36 49.1964C114.466 49.5529 113.751 49.9094 112.856 50.2659C112.499 50.4441 112.499 50.4441 112.678 50.8006C113.214 52.0483 114.108 53.1178 115.003 54.1873C117.507 57.0393 120.547 58.4653 124.124 58.8218C126.271 59 128.238 59 130.205 58.287C133.961 57.2175 136.644 54.7221 138.254 51.1571C139.327 48.6616 139.685 45.9879 139.685 43.3142C140.221 39.3928 140.221 35.2931 140.221 31.1934ZM116.791 39.3928C116.791 39.0363 116.612 38.6798 116.255 38.858C116.612 38.6798 116.612 39.0363 116.791 39.3928C117.149 39.3928 117.328 39.571 117.686 39.571C117.328 39.3928 116.97 39.3928 116.791 39.3928ZM137.896 48.4834C137.896 48.3051 137.717 48.3051 137.896 48.4834C137.717 48.3051 137.896 48.3051 137.896 48.4834ZM112.678 29.4109V29.5891V29.7674V29.5891V29.4109ZM120.547 24.7764C121.799 23.5287 123.23 22.6375 125.019 22.281C128.238 21.7462 130.742 22.8157 132.709 25.3112C133.604 26.5589 134.14 27.9849 134.319 29.4109C134.677 31.7281 134.319 34.0453 133.067 36.1843C131.815 38.145 130.205 39.571 127.88 39.9275C125.019 40.4622 122.336 39.571 120.368 37.2538C119.116 36.006 118.58 34.4018 118.222 32.6193C118.222 32.0846 118.043 31.5499 118.043 31.0151C118.222 28.6979 118.937 26.3807 120.547 24.7764ZM131.994 54.7221C131.994 54.9003 131.994 55.0786 131.994 55.0786C131.994 54.9003 131.994 54.9003 131.994 54.7221Z" fill="#3C8DF9"/>
<path d="M76.5491 29.0544C76.3703 27.4502 76.0126 26.0242 75.2972 24.5982C74.0452 21.7462 71.899 19.7855 69.2161 18.1813C66.3545 16.577 63.314 16.0423 59.9158 16.3988C55.4444 16.9335 51.8673 19.0725 49.3634 22.8157C47.9326 24.7764 47.2171 27.0937 46.8594 29.5891C46.6806 31.5499 46.8594 33.5106 47.5748 35.4713C48.2903 37.6103 49.3634 39.571 50.9731 41.3535C54.0136 44.5619 57.9484 45.8097 62.4197 45.8097C63.4928 45.8097 64.5659 45.6314 65.6391 45.4532C68.3219 44.7402 70.8258 43.3142 72.7932 41.3535C74.7606 39.2145 76.0126 36.8973 76.5491 34.0453C76.728 32.2628 76.728 30.6586 76.5491 29.0544ZM65.1025 20.4985C65.1025 20.4985 65.1025 20.3202 65.1025 20.4985C65.1025 20.3202 65.1025 20.4985 65.1025 20.4985ZM61.8831 39.9275C58.3061 39.9275 55.0867 37.7885 54.0136 34.4018C53.1193 31.5498 53.1193 28.8761 54.5501 26.2024C55.8021 24.0634 57.5907 22.8157 59.9158 22.281C62.4197 21.7462 64.7448 22.281 66.891 23.8852C68.6796 25.1329 69.5738 26.9154 69.9316 29.0544C70.1104 30.4804 70.1104 31.9063 69.7527 33.3323C69.0373 36.1843 67.4276 38.145 64.5659 39.3928C63.8505 39.7492 62.7774 39.9275 61.8831 39.9275Z" fill="#FF392A"/>
<path d="M161.863 35.2931C161.863 35.2931 162.042 35.2931 162.042 35.1148C162.757 34.7583 163.473 34.5801 164.188 34.2236C166.513 33.1541 169.017 32.2628 171.342 31.1934C174.383 29.9456 177.423 28.6979 180.464 27.4502C181 27.2719 181 27.0937 180.821 26.5589C180.643 26.2024 180.464 25.8459 180.285 25.3112C179.391 23.1722 178.139 21.0332 176.35 19.429C174.383 17.6465 172.236 16.577 169.732 16.2205C166.871 15.6858 164.009 16.0423 161.326 17.4683C156.497 19.9637 154.172 24.0634 153.636 29.4109C153.457 30.8369 153.636 32.2628 153.814 33.5106C153.993 34.9366 154.53 36.1843 155.066 37.432C156.14 39.7492 157.749 41.5317 159.717 42.9577C161.505 44.2054 163.651 45.0967 165.798 45.4532C167.05 45.6314 168.48 45.6314 169.732 45.4532C171.342 45.2749 172.952 44.9184 174.383 44.2054C176.708 43.136 178.675 41.5317 180.106 39.571C180.464 39.2145 180.464 39.0363 179.927 38.6798C178.496 37.7885 177.244 36.8973 175.813 36.006C175.277 35.6496 175.277 35.6495 174.919 36.1843C173.131 38.5015 170.806 39.7492 167.944 39.7492C167.765 39.7492 167.407 39.7492 167.228 39.7492C165.44 39.571 163.83 39.0363 162.578 37.7885C162.042 37.2538 161.505 36.5408 161.147 35.8278C161.326 35.4713 161.326 35.4713 161.863 35.2931ZM164.725 31.7281C164.903 31.7281 164.903 31.7281 164.903 31.9063C164.903 31.7281 164.725 31.7281 164.725 31.7281C164.546 31.7281 164.725 31.7281 164.725 31.7281C164.725 31.7281 164.546 31.7281 164.725 31.7281ZM161.863 25.1329C163.115 23.707 164.546 22.6375 166.334 22.281C168.659 21.568 171.342 22.281 172.952 24.2417C172.952 24.2417 172.952 24.2417 172.952 24.4199C173.488 25.1329 173.488 25.3112 172.594 25.6677C168.838 27.2719 165.082 28.6979 161.326 30.3021H161.147C160.253 30.6586 160.253 30.6586 160.253 29.4109C160.253 27.8066 160.969 26.3807 161.863 25.1329Z" fill="#FF392A"/>
<path d="M150.416 1.60423C148.628 1.60423 147.018 1.60423 145.229 1.60423C144.514 1.60423 144.514 1.60423 144.514 2.31722C144.514 9.26889 144.514 16.2205 144.514 23.3505C144.335 25.1329 144.514 27.0937 144.514 28.8761C144.514 31.0151 144.514 32.9758 144.514 35.1148C144.514 38.145 144.514 41.1752 144.514 44.3837C144.514 45.0967 144.514 45.0967 145.229 45.0967C147.018 45.0967 148.628 45.0967 150.416 45.0967C150.595 45.0967 150.595 45.0967 150.774 45.0967C150.953 45.0967 151.132 44.9184 151.132 44.7402C151.132 44.5619 151.132 44.5619 151.132 44.3837C151.132 35.2931 151.132 26.3807 151.132 17.29C151.132 12.2991 151.132 7.48641 151.132 2.49547C151.132 1.60423 151.132 1.60423 150.416 1.60423Z" fill="#1DB25E"/>
<path d="M44.7134 21.568C44.5346 20.855 44.5346 20.855 43.8192 20.855C40.5998 20.855 37.2016 20.855 33.9822 20.855C33.8034 20.855 33.6245 20.855 33.4457 20.855C30.4051 20.855 27.1858 20.855 24.1453 20.855C23.4298 20.855 23.4298 20.855 23.4298 21.568C23.4298 22.994 23.4298 24.4199 23.4298 25.8459C23.4298 26.0242 23.4298 26.2024 23.4298 26.5589C23.4298 27.0937 23.4298 27.0937 23.9664 27.0937H24.1453C27.3646 27.0937 30.584 27.0937 33.6245 27.0937C35.0553 27.0937 36.3073 27.0937 37.7381 27.0937C38.2747 27.0937 38.2747 27.2719 38.2747 27.6284C38.0959 28.8761 37.7381 30.3021 37.2016 31.3716C36.1285 34.0453 34.1611 36.006 31.836 37.2538C29.8686 38.3233 27.5435 39.0363 25.2184 39.2145C22.5356 39.571 20.0316 39.2145 17.7065 38.3233C14.8449 37.2538 12.3409 35.6495 10.5524 33.1541C8.40613 30.4804 7.15415 27.2719 6.9753 23.7069C6.9753 21.7462 6.9753 19.9637 7.51186 18.1813C8.22727 16.0423 9.12154 13.9033 10.5524 12.1208C13.5929 8.1994 17.7065 6.23867 22.7144 6.06042C23.6087 6.06042 24.6818 6.06042 25.5761 6.23867C27.0069 6.41692 28.2589 6.77341 29.5109 7.12991C31.2994 7.8429 32.9091 8.73414 34.3399 10.1601C34.6976 10.5166 34.6976 10.5166 35.0553 10.1601C36.3073 8.91239 37.5593 7.66465 38.6324 6.41692C38.9901 6.06042 38.9901 6.06042 38.6324 5.70393C37.917 5.16918 37.2016 4.45619 36.4862 3.92145C34.6976 2.67372 32.5514 1.60423 30.4051 0.891239C28.08 0.356495 25.5761 0 23.251 0C21.4625 0 19.6739 0.178248 18.0642 0.712991C15.918 1.06949 14.1294 1.78248 12.3409 2.85196C9.83696 4.27795 7.69071 5.88218 5.72332 8.1994C3.93478 10.3384 2.3251 12.8338 1.43083 15.5076C0.536561 18.1813 0 20.855 0 23.7069C0 25.4894 0.357708 27.2719 0.894269 29.0544C1.25198 30.1239 1.60968 31.1934 1.96739 32.0846C2.86166 33.8671 3.93478 35.6495 5.36561 37.432C6.79644 39.2145 8.40613 40.4622 10.1947 41.8882C11.6255 42.9577 13.2352 43.6707 15.0237 44.3837C16.4545 44.9184 17.8854 45.2749 19.3162 45.6314C20.2105 45.8097 21.1047 45.8097 21.999 45.9879C23.6087 46.1662 25.2184 45.9879 26.8281 45.8097C28.4377 45.6314 30.2263 45.2749 31.836 44.5619C34.3399 43.6707 36.665 42.2447 38.8113 40.4622C41.3152 38.145 43.1038 35.1148 44.1769 31.9063C44.8923 28.3414 45.0711 24.9547 44.7134 21.568ZM8.22727 37.7885C8.40613 37.7885 8.40613 37.7885 8.22727 37.7885C8.40613 37.7885 8.40613 37.7885 8.22727 37.7885C8.22727 37.9668 8.22727 37.9668 8.40613 38.145C8.40613 38.145 8.22727 37.9668 8.22727 37.7885ZM1.25198 27.2719V27.0937V26.9154C1.25198 26.9154 1.25198 26.9154 1.25198 27.0937C1.43083 27.0937 1.25198 27.0937 1.25198 27.2719ZM30.9417 43.4924C31.1206 43.3142 31.1206 43.3142 31.2994 43.136H31.4783H31.2994C31.1206 43.3142 31.1206 43.3142 30.9417 43.4924ZM36.665 40.4622C36.4862 40.4622 36.4862 40.4622 36.665 40.4622C36.4862 40.4622 36.4862 40.4622 36.665 40.4622C36.665 40.4622 36.8439 40.4622 36.8439 40.284C36.665 40.4622 36.665 40.4622 36.665 40.4622Z" fill="#3C8DF9"/>
<path d="M2.25746 79V61.5455H8.47905C9.83132 61.5455 10.9535 61.7784 11.8455 62.2443C12.7433 62.7102 13.4137 63.3551 13.8569 64.179C14.3001 64.9972 14.5217 65.9432 14.5217 67.017C14.5217 68.0852 14.2972 69.0256 13.8484 69.8381C13.4052 70.6449 12.7347 71.2727 11.837 71.7216C10.945 72.1705 9.8228 72.3949 8.47053 72.3949H3.75746V70.1278H8.23189C9.08416 70.1278 9.77734 70.0057 10.3114 69.7614C10.8512 69.517 11.2461 69.1619 11.4961 68.696C11.7461 68.2301 11.8711 67.6705 11.8711 67.017C11.8711 66.358 11.7433 65.7869 11.4876 65.304C11.2376 64.821 10.8427 64.4517 10.3029 64.196C9.76882 63.9347 9.06712 63.804 8.1978 63.804H4.89098V79H2.25746ZM10.8739 71.125L15.1864 79H12.1864L7.95916 71.125H10.8739ZM22.9996 79.2642C21.7099 79.2642 20.5991 78.9886 19.6673 78.4375C18.7411 77.8807 18.0252 77.0994 17.5195 76.0938C17.0195 75.0824 16.7695 73.8977 16.7695 72.5398C16.7695 71.1989 17.0195 70.017 17.5195 68.9943C18.0252 67.9716 18.7298 67.1733 19.6332 66.5994C20.5423 66.0256 21.6048 65.7386 22.8207 65.7386C23.5593 65.7386 24.2752 65.8608 24.9684 66.1051C25.6616 66.3494 26.2837 66.733 26.8349 67.2557C27.386 67.7784 27.8207 68.4574 28.1389 69.2926C28.457 70.1222 28.6161 71.1307 28.6161 72.3182V73.2216H18.2099V71.3125H26.119C26.119 70.642 25.9826 70.0483 25.7099 69.5312C25.4371 69.0085 25.0536 68.5966 24.5593 68.2955C24.0707 67.9943 23.4968 67.8438 22.8377 67.8438C22.1218 67.8438 21.4968 68.0199 20.9627 68.3722C20.4343 68.7187 20.0252 69.1733 19.7354 69.7358C19.4513 70.2926 19.3093 70.8977 19.3093 71.5511V73.0426C19.3093 73.9176 19.4627 74.6619 19.7695 75.2756C20.082 75.8892 20.5167 76.358 21.0735 76.6818C21.6303 77 22.2809 77.1591 23.0252 77.1591C23.5082 77.1591 23.9485 77.0909 24.3462 76.9545C24.744 76.8125 25.0877 76.6023 25.3775 76.3239C25.6673 76.0455 25.8888 75.7017 26.0423 75.2926L28.4542 75.7273C28.261 76.4375 27.9144 77.0597 27.4144 77.5938C26.9201 78.1222 26.2979 78.5341 25.5479 78.8295C24.8036 79.1193 23.9542 79.2642 22.9996 79.2642ZM42.2674 65.9091L37.5202 79H34.793L30.0373 65.9091H32.7731L36.0884 75.983H36.2248L39.5316 65.9091H42.2674ZM44.6623 79V65.9091H47.2106V79H44.6623ZM45.9492 63.8892C45.506 63.8892 45.1254 63.7415 44.8072 63.446C44.4947 63.1449 44.3384 62.7869 44.3384 62.3722C44.3384 61.9517 44.4947 61.5937 44.8072 61.2983C45.1254 60.9972 45.506 60.8466 45.9492 60.8466C46.3924 60.8466 46.7702 60.9972 47.0827 61.2983C47.4009 61.5937 47.56 61.9517 47.56 62.3722C47.56 62.7869 47.4009 63.1449 47.0827 63.446C46.7702 63.7415 46.3924 63.8892 45.9492 63.8892ZM56.2809 79.2642C54.9911 79.2642 53.8803 78.9886 52.9485 78.4375C52.0224 77.8807 51.3065 77.0994 50.8008 76.0938C50.3008 75.0824 50.0508 73.8977 50.0508 72.5398C50.0508 71.1989 50.3008 70.017 50.8008 68.9943C51.3065 67.9716 52.011 67.1733 52.9144 66.5994C53.8235 66.0256 54.886 65.7386 56.1019 65.7386C56.8406 65.7386 57.5565 65.8608 58.2496 66.1051C58.9428 66.3494 59.565 66.733 60.1161 67.2557C60.6673 67.7784 61.1019 68.4574 61.4201 69.2926C61.7383 70.1222 61.8974 71.1307 61.8974 72.3182V73.2216H51.4911V71.3125H59.4002C59.4002 70.642 59.2638 70.0483 58.9911 69.5312C58.7184 69.0085 58.3349 68.5966 57.8406 68.2955C57.3519 67.9943 56.7781 67.8438 56.119 67.8438C55.4031 67.8438 54.7781 68.0199 54.244 68.3722C53.7156 68.7187 53.3065 69.1733 53.0167 69.7358C52.7326 70.2926 52.5906 70.8977 52.5906 71.5511V73.0426C52.5906 73.9176 52.744 74.6619 53.0508 75.2756C53.3633 75.8892 53.7979 76.358 54.3548 76.6818C54.9116 77 55.5621 77.1591 56.3065 77.1591C56.7894 77.1591 57.2298 77.0909 57.6275 76.9545C58.0252 76.8125 58.369 76.6023 58.6587 76.3239C58.9485 76.0455 59.1701 75.7017 59.3235 75.2926L61.7354 75.7273C61.5423 76.4375 61.1957 77.0597 60.6957 77.5938C60.2013 78.1222 59.5792 78.5341 58.8292 78.8295C58.0849 79.1193 57.2354 79.2642 56.2809 79.2642ZM67.5394 79L63.6871 65.9091H66.3207L68.886 75.5227H69.0138L71.5877 65.9091H74.2212L76.7781 75.4801H76.9059L79.4542 65.9091H82.0877L78.244 79H75.6445L72.9854 69.5483H72.7894L70.1303 79H67.5394ZM94.3157 69.1051L92.006 69.5142C91.9094 69.2187 91.756 68.9375 91.5458 68.6705C91.3413 68.4034 91.0629 68.1847 90.7106 68.0142C90.3583 67.8437 89.918 67.7585 89.3896 67.7585C88.668 67.7585 88.0657 67.9205 87.5827 68.2443C87.0998 68.5625 86.8583 68.9744 86.8583 69.4801C86.8583 69.9176 87.0202 70.2699 87.3441 70.5369C87.668 70.804 88.1907 71.0227 88.9123 71.1932L90.9918 71.6705C92.1964 71.9489 93.0941 72.3778 93.685 72.9574C94.2759 73.5369 94.5714 74.2898 94.5714 75.2159C94.5714 76 94.3441 76.6989 93.8896 77.3125C93.4407 77.9205 92.8129 78.3977 92.006 78.7443C91.2049 79.0909 90.2759 79.2642 89.2191 79.2642C87.7532 79.2642 86.5572 78.9517 85.631 78.3267C84.7049 77.696 84.1367 76.8011 83.9265 75.642L86.3896 75.267C86.543 75.9091 86.8583 76.3949 87.3356 76.7244C87.8129 77.0483 88.435 77.2102 89.2021 77.2102C90.0373 77.2102 90.7049 77.0369 91.2049 76.6903C91.7049 76.3381 91.9549 75.9091 91.9549 75.4034C91.9549 74.9943 91.8015 74.6506 91.4947 74.3722C91.1935 74.0937 90.7305 73.8835 90.1055 73.7415L87.8896 73.2557C86.668 72.9773 85.7646 72.5341 85.1793 71.9261C84.5998 71.3182 84.31 70.5483 84.31 69.6165C84.31 68.8437 84.5259 68.1676 84.9577 67.5881C85.3896 67.0085 85.9862 66.5568 86.7475 66.233C87.5089 65.9034 88.381 65.7386 89.364 65.7386C90.7788 65.7386 91.8924 66.0455 92.7049 66.6591C93.5174 67.267 94.0543 68.0824 94.3157 69.1051Z" fill="#414141"/>
<g clip-path="url(#clip0_726_21)">
<path d="M114.259 63.1594L116.818 68.297C116.858 68.3808 116.94 68.4403 117.036 68.4538L122.755 69.2786C122.992 69.3137 123.088 69.6003 122.916 69.768L118.776 73.7645C118.708 73.8294 118.678 73.924 118.694 74.0187L119.67 79.6646C119.711 79.8998 119.463 80.0756 119.25 79.9674L114.137 77.3013C114.052 77.258 113.951 77.258 113.867 77.3013L108.753 79.9674C108.54 80.0783 108.292 79.8998 108.333 79.6646L109.309 74.0187C109.326 73.9267 109.296 73.8321 109.228 73.7645L105.088 69.7653C104.916 69.6003 105.011 69.311 105.248 69.2759L110.968 68.4511C111.06 68.4376 111.142 68.3781 111.186 68.2943L113.744 63.1567C113.848 62.9458 114.153 62.9458 114.259 63.1594Z" fill="#F3CC30"/>
<path d="M114.001 64.3466L111.72 68.7243C111.6 68.9542 111.371 69.1083 111.112 69.1299L106.165 69.5761L111.393 69.8195C111.726 69.8357 112.029 69.6356 112.143 69.3273L114.001 64.3466Z" fill="#F7DB5E"/>
<path d="M108.444 79.0157L108.333 79.6647C108.292 79.8999 108.54 80.0757 108.753 79.9675L113.866 77.3014C113.951 77.2581 114.052 77.2581 114.136 77.3014L119.25 79.9675C119.463 80.0784 119.711 79.8999 119.67 79.6647L118.691 74.0188C118.674 73.9268 118.704 73.8322 118.773 73.7646L122.91 69.7654C123.082 69.6004 122.986 69.3111 122.749 69.276L120.837 69.0029C117.739 74.5136 112.996 77.415 108.444 79.0157Z" fill="#EDBD31"/>
</g>
<g clip-path="url(#clip1_726_21)">
<path d="M135.259 63.1594L137.818 68.297C137.858 68.3808 137.94 68.4403 138.036 68.4538L143.755 69.2786C143.992 69.3137 144.088 69.6003 143.916 69.768L139.776 73.7645C139.708 73.8294 139.678 73.924 139.694 74.0187L140.67 79.6646C140.711 79.8998 140.463 80.0756 140.25 79.9674L135.137 77.3013C135.052 77.258 134.951 77.258 134.867 77.3013L129.753 79.9674C129.54 80.0783 129.292 79.8998 129.333 79.6646L130.309 74.0187C130.326 73.9267 130.296 73.8321 130.228 73.7645L126.088 69.7653C125.916 69.6003 126.011 69.311 126.248 69.2759L131.968 68.4511C132.06 68.4376 132.142 68.3781 132.186 68.2943L134.744 63.1567C134.848 62.9458 135.153 62.9458 135.259 63.1594Z" fill="#F3CC30"/>
<path d="M135.001 64.3466L132.72 68.7243C132.6 68.9542 132.371 69.1083 132.112 69.1299L127.165 69.5761L132.393 69.8195C132.726 69.8357 133.029 69.6356 133.143 69.3273L135.001 64.3466Z" fill="#F7DB5E"/>
<path d="M129.444 79.0157L129.333 79.6647C129.292 79.8999 129.54 80.0757 129.753 79.9675L134.866 77.3014C134.951 77.2581 135.052 77.2581 135.136 77.3014L140.25 79.9675C140.463 80.0784 140.711 79.8999 140.67 79.6647L139.691 74.0188C139.674 73.9268 139.704 73.8322 139.773 73.7646L143.91 69.7654C144.082 69.6004 143.986 69.3111 143.749 69.276L141.837 69.0029C138.739 74.5136 133.996 77.415 129.444 79.0157Z" fill="#EDBD31"/>
</g>
<g clip-path="url(#clip2_726_21)">
<path d="M155.259 63.1594L157.818 68.297C157.858 68.3808 157.94 68.4403 158.036 68.4538L163.755 69.2786C163.992 69.3137 164.088 69.6003 163.916 69.768L159.776 73.7645C159.708 73.8294 159.678 73.924 159.694 74.0187L160.67 79.6646C160.711 79.8998 160.463 80.0756 160.25 79.9674L155.137 77.3013C155.052 77.258 154.951 77.258 154.867 77.3013L149.753 79.9674C149.54 80.0783 149.292 79.8998 149.333 79.6646L150.309 74.0187C150.326 73.9267 150.296 73.8321 150.228 73.7645L146.088 69.7653C145.916 69.6003 146.011 69.311 146.248 69.2759L151.968 68.4511C152.06 68.4376 152.142 68.3781 152.186 68.2943L154.744 63.1567C154.848 62.9458 155.153 62.9458 155.259 63.1594Z" fill="#F3CC30"/>
<path d="M155.001 64.3466L152.72 68.7243C152.6 68.9542 152.371 69.1083 152.112 69.1299L147.165 69.5761L152.393 69.8195C152.726 69.8357 153.029 69.6356 153.143 69.3273L155.001 64.3466Z" fill="#F7DB5E"/>
<path d="M149.444 79.0157L149.333 79.6647C149.292 79.8999 149.54 80.0757 149.753 79.9675L154.866 77.3014C154.951 77.2581 155.052 77.2581 155.136 77.3014L160.25 79.9675C160.463 80.0784 160.711 79.8999 160.67 79.6647L159.691 74.0188C159.674 73.9268 159.704 73.8322 159.773 73.7646L163.91 69.7654C164.082 69.6004 163.986 69.3111 163.749 69.276L161.837 69.0029C158.739 74.5136 153.996 77.415 149.444 79.0157Z" fill="#EDBD31"/>
</g>
<g clip-path="url(#clip3_726_21)">
<path d="M175.259 63.1594L177.818 68.297C177.858 68.3808 177.94 68.4403 178.036 68.4538L183.755 69.2786C183.992 69.3137 184.088 69.6003 183.916 69.768L179.776 73.7645C179.708 73.8294 179.678 73.924 179.694 74.0187L180.67 79.6646C180.711 79.8998 180.463 80.0756 180.25 79.9674L175.137 77.3013C175.052 77.258 174.951 77.258 174.867 77.3013L169.753 79.9674C169.54 80.0783 169.292 79.8998 169.333 79.6646L170.309 74.0187C170.326 73.9267 170.296 73.8321 170.228 73.7645L166.088 69.7653C165.916 69.6003 166.011 69.311 166.248 69.2759L171.968 68.4511C172.06 68.4376 172.142 68.3781 172.186 68.2943L174.744 63.1567C174.848 62.9458 175.153 62.9458 175.259 63.1594Z" fill="#F3CC30"/>
<path d="M175.001 64.3466L172.72 68.7243C172.6 68.9542 172.371 69.1083 172.112 69.1299L167.165 69.5761L172.393 69.8195C172.726 69.8357 173.029 69.6356 173.143 69.3273L175.001 64.3466Z" fill="#F7DB5E"/>
<path d="M169.444 79.0157L169.333 79.6647C169.292 79.8999 169.54 80.0757 169.753 79.9675L174.866 77.3014C174.951 77.2581 175.052 77.2581 175.136 77.3014L180.25 79.9675C180.463 80.0784 180.711 79.8999 180.67 79.6647L179.691 74.0188C179.674 73.9268 179.704 73.8322 179.773 73.7646L183.91 69.7654C184.082 69.6004 183.986 69.3111 183.749 69.276L181.837 69.0029C178.739 74.5136 173.996 77.415 169.444 79.0157Z" fill="#EDBD31"/>
</g>
<g clip-path="url(#clip4_726_21)">
<path d="M196.259 63.1594L198.818 68.297C198.858 68.3808 198.94 68.4403 199.036 68.4538L204.755 69.2786C204.992 69.3137 205.088 69.6003 204.916 69.768L200.776 73.7645C200.708 73.8294 200.678 73.924 200.694 74.0187L201.67 79.6646C201.711 79.8998 201.463 80.0756 201.25 79.9674L196.137 77.3013C196.052 77.258 195.951 77.258 195.867 77.3013L190.753 79.9674C190.54 80.0783 190.292 79.8998 190.333 79.6646L191.309 74.0187C191.326 73.9267 191.296 73.8321 191.228 73.7645L187.088 69.7653C186.916 69.6003 187.011 69.311 187.248 69.2759L192.968 68.4511C193.06 68.4376 193.142 68.3781 193.186 68.2943L195.744 63.1567C195.848 62.9458 196.153 62.9458 196.259 63.1594Z" fill="#F3CC30"/>
<path d="M196.001 64.3466L193.72 68.7243C193.6 68.9542 193.371 69.1083 193.112 69.1299L188.165 69.5761L193.393 69.8195C193.726 69.8357 194.029 69.6356 194.143 69.3273L196.001 64.3466Z" fill="#F7DB5E"/>
<path d="M190.444 79.0157L190.333 79.6647C190.292 79.8999 190.54 80.0757 190.753 79.9675L195.866 77.3014C195.951 77.2581 196.052 77.2581 196.136 77.3014L201.25 79.9675C201.463 80.0784 201.711 79.8999 201.67 79.6647L200.691 74.0188C200.674 73.9268 200.704 73.8322 200.773 73.7646L204.91 69.7654C205.082 69.6004 204.986 69.3111 204.749 69.276L202.837 69.0029C199.739 74.5136 194.996 77.415 190.444 79.0157Z" fill="#EDBD31"/>
</g>
<defs>
<clipPath id="clip0_726_21">
<rect width="18" height="17" fill="white" transform="translate(105 63)"/>
</clipPath>
<clipPath id="clip1_726_21">
<rect width="18" height="17" fill="white" transform="translate(126 63)"/>
</clipPath>
<clipPath id="clip2_726_21">
<rect width="18" height="17" fill="white" transform="translate(146 63)"/>
</clipPath>
<clipPath id="clip3_726_21">
<rect width="18" height="17" fill="white" transform="translate(166 63)"/>
</clipPath>
<clipPath id="clip4_726_21">
<rect width="18" height="17" fill="white" transform="translate(187 63)"/>
</clipPath>
</defs>
</svg>
