<svg width="186" height="85" viewBox="0 0 186 85" fill="none" xmlns="http://www.w3.org/2000/svg">
<path d="M108.743 28.5196C108.207 25.4894 107.134 22.994 104.987 20.6767C103.378 19.0725 101.589 18.003 99.6218 17.29C96.5812 16.2205 93.5407 16.0423 90.5002 16.7553C86.3866 17.6465 83.3461 19.9637 81.1998 23.5287C79.9478 25.8459 79.2324 28.1631 79.2324 30.8369C79.2324 32.4411 79.4113 34.0453 79.9478 35.6495C80.8421 38.5015 82.4518 40.8187 84.9557 42.6012C87.6386 44.7402 90.6791 45.6314 94.0773 45.6314C94.7927 45.6314 95.5081 45.6314 96.2235 45.4532C98.5486 45.0967 100.874 44.3837 102.841 42.9577C105.345 41.1752 107.134 38.858 108.207 36.006C109.101 33.6888 109.28 31.1934 108.743 28.5196ZM101.589 35.1148C100.516 37.432 98.7275 39.0363 96.2235 39.571C93.3619 40.284 90.8579 39.571 88.7117 37.7885C87.4597 36.719 86.5654 35.1148 86.0289 33.5106C85.85 32.6193 85.6712 31.7281 85.6712 31.0151C85.6712 28.8761 86.2077 26.9154 87.2808 25.3112C88.8905 23.1722 91.0368 22.1027 93.7196 21.9245C95.5081 21.9245 97.2967 22.281 98.7275 23.3505C100.516 24.5982 101.589 26.2024 102.126 28.1631C102.841 30.6586 102.662 32.9758 101.589 35.1148Z" fill="#FFBD1C"/>
<path d="M140.221 31.1934C140.221 29.4109 140.221 27.8067 140.221 26.0242C140.221 23.3505 140.221 20.4985 140.221 17.8248C140.221 17.1118 140.221 17.1118 139.506 17.1118C137.896 17.1118 136.107 17.1118 134.498 17.1118C133.961 17.1118 133.961 17.1118 133.961 17.6465C133.961 18.003 133.961 18.5378 133.961 18.8943C133.961 19.0725 133.961 19.2508 133.782 19.429C133.604 19.429 133.425 19.2508 133.425 19.2508L133.246 19.0725C132.173 18.1813 131.1 17.4683 129.669 16.9335C126.449 15.8641 123.23 16.2205 120.189 17.6465C117.864 18.716 116.076 20.3202 114.466 22.4592C112.678 24.9547 111.783 27.8066 111.604 30.8369C111.604 32.6193 111.783 34.2236 112.32 35.8278C113.751 39.9275 116.612 42.9577 120.726 44.7402C123.051 45.6314 125.376 45.9879 127.701 45.6314C129.49 45.4532 131.1 44.7402 132.352 43.4925C132.709 43.136 133.067 42.9577 133.246 42.6012C133.425 42.423 133.604 42.423 133.604 42.7795C133.604 43.136 133.604 43.6707 133.604 44.0272C133.604 45.4532 133.604 46.8792 133.067 48.3051C132.53 50.0876 131.457 51.3354 129.848 52.2266C128.953 52.7613 128.059 52.9396 126.986 53.1178C124.482 53.4743 122.157 52.9396 120.368 51.1571C119.474 50.4441 118.937 49.5529 118.401 48.6616C118.043 48.1269 118.043 48.1269 117.507 48.3051C116.791 48.6616 116.076 48.8399 115.36 49.1964C114.466 49.5529 113.751 49.9094 112.856 50.2659C112.499 50.4441 112.499 50.4441 112.678 50.8006C113.214 52.0483 114.108 53.1178 115.003 54.1873C117.507 57.0393 120.547 58.4653 124.124 58.8218C126.271 59 128.238 59 130.205 58.287C133.961 57.2175 136.644 54.7221 138.254 51.1571C139.327 48.6616 139.685 45.9879 139.685 43.3142C140.221 39.3928 140.221 35.2931 140.221 31.1934ZM116.791 39.3928C116.791 39.0363 116.612 38.6798 116.255 38.858C116.612 38.6798 116.612 39.0363 116.791 39.3928C117.149 39.3928 117.328 39.571 117.686 39.571C117.328 39.3928 116.97 39.3928 116.791 39.3928ZM137.896 48.4834C137.896 48.3051 137.717 48.3051 137.896 48.4834C137.717 48.3051 137.896 48.3051 137.896 48.4834ZM112.678 29.4109V29.5891V29.7674V29.5891V29.4109ZM120.547 24.7764C121.799 23.5287 123.23 22.6375 125.019 22.281C128.238 21.7462 130.742 22.8157 132.709 25.3112C133.604 26.5589 134.14 27.9849 134.319 29.4109C134.677 31.7281 134.319 34.0453 133.067 36.1843C131.815 38.145 130.205 39.571 127.88 39.9275C125.019 40.4622 122.336 39.571 120.368 37.2538C119.116 36.006 118.58 34.4018 118.222 32.6193C118.222 32.0846 118.043 31.5499 118.043 31.0151C118.222 28.6979 118.938 26.3807 120.547 24.7764ZM131.994 54.7221C131.994 54.9003 131.994 55.0786 131.994 55.0786C131.994 54.9003 131.994 54.9003 131.994 54.7221Z" fill="#3C8DF9"/>
<path d="M76.5491 29.0544C76.3703 27.4502 76.0126 26.0242 75.2972 24.5982C74.0452 21.7462 71.899 19.7855 69.2161 18.1813C66.3545 16.577 63.314 16.0423 59.9158 16.3988C55.4444 16.9335 51.8673 19.0725 49.3634 22.8157C47.9326 24.7764 47.2171 27.0937 46.8594 29.5891C46.6806 31.5499 46.8594 33.5106 47.5748 35.4713C48.2903 37.6103 49.3634 39.571 50.9731 41.3535C54.0136 44.5619 57.9484 45.8097 62.4197 45.8097C63.4928 45.8097 64.566 45.6314 65.6391 45.4532C68.3219 44.7402 70.8258 43.3142 72.7932 41.3535C74.7606 39.2145 76.0126 36.8973 76.5491 34.0453C76.728 32.2628 76.728 30.6586 76.5491 29.0544ZM65.1025 20.4985C65.1025 20.4985 65.1025 20.3202 65.1025 20.4985C65.1025 20.3202 65.1025 20.4985 65.1025 20.4985ZM61.8831 39.9275C58.3061 39.9275 55.0867 37.7885 54.0136 34.4018C53.1193 31.5498 53.1193 28.8761 54.5501 26.2024C55.8021 24.0634 57.5907 22.8157 59.9158 22.281C62.4197 21.7462 64.7448 22.281 66.8911 23.8852C68.6796 25.1329 69.5739 26.9154 69.9316 29.0544C70.1104 30.4804 70.1104 31.9063 69.7527 33.3323C69.0373 36.1843 67.4276 38.145 64.5659 39.3928C63.8505 39.7492 62.7774 39.9275 61.8831 39.9275Z" fill="#FF392A"/>
<path d="M161.863 35.2931C161.863 35.2931 162.042 35.2931 162.042 35.1148C162.757 34.7583 163.473 34.5801 164.188 34.2236C166.513 33.1541 169.017 32.2628 171.342 31.1934C174.383 29.9456 177.423 28.6979 180.464 27.4502C181 27.2719 181 27.0937 180.821 26.5589C180.643 26.2024 180.464 25.8459 180.285 25.3112C179.391 23.1722 178.139 21.0332 176.35 19.429C174.383 17.6465 172.236 16.577 169.732 16.2205C166.871 15.6858 164.009 16.0423 161.326 17.4683C156.497 19.9637 154.172 24.0634 153.636 29.4109C153.457 30.8369 153.636 32.2628 153.814 33.5106C153.993 34.9366 154.53 36.1843 155.066 37.432C156.14 39.7492 157.749 41.5317 159.717 42.9577C161.505 44.2054 163.651 45.0967 165.798 45.4532C167.05 45.6314 168.48 45.6314 169.732 45.4532C171.342 45.2749 172.952 44.9184 174.383 44.2054C176.708 43.136 178.675 41.5317 180.106 39.571C180.464 39.2145 180.464 39.0363 179.927 38.6798C178.496 37.7885 177.244 36.8973 175.813 36.006C175.277 35.6496 175.277 35.6495 174.919 36.1843C173.131 38.5015 170.806 39.7492 167.944 39.7492C167.765 39.7492 167.407 39.7492 167.228 39.7492C165.44 39.571 163.83 39.0363 162.578 37.7885C162.042 37.2538 161.505 36.5408 161.147 35.8278C161.326 35.4713 161.326 35.4713 161.863 35.2931ZM164.725 31.7281C164.903 31.7281 164.903 31.7281 164.903 31.9063C164.903 31.7281 164.725 31.7281 164.725 31.7281C164.725 31.7281 164.546 31.7281 164.725 31.7281C164.546 31.7281 164.725 31.7281 164.725 31.7281ZM161.863 25.1329C163.115 23.707 164.546 22.6375 166.334 22.281C168.659 21.568 171.342 22.281 172.952 24.2417C172.952 24.2417 172.952 24.2417 172.952 24.4199C173.488 25.1329 173.488 25.3112 172.594 25.6677C168.838 27.2719 165.082 28.6979 161.326 30.3021H161.147C160.253 30.6586 160.253 30.6586 160.253 29.4109C160.253 27.8066 160.969 26.3807 161.863 25.1329Z" fill="#FF392A"/>
<path d="M150.416 1.60423C148.628 1.60423 147.018 1.60423 145.229 1.60423C144.514 1.60423 144.514 1.60423 144.514 2.31722C144.514 9.26889 144.514 16.2205 144.514 23.3505C144.335 25.1329 144.514 27.0937 144.514 28.8761C144.514 31.0151 144.514 32.9758 144.514 35.1148C144.514 38.145 144.514 41.1752 144.514 44.3837C144.514 45.0967 144.514 45.0967 145.229 45.0967C147.018 45.0967 148.628 45.0967 150.416 45.0967C150.595 45.0967 150.595 45.0967 150.774 45.0967C150.953 45.0967 151.132 44.9184 151.132 44.7402C151.132 44.5619 151.132 44.5619 151.132 44.3837C151.132 35.2931 151.132 26.3807 151.132 17.29C151.132 12.2991 151.132 7.48641 151.132 2.49547C151.132 1.60423 151.132 1.60423 150.416 1.60423Z" fill="#1DB25E"/>
<path d="M44.7134 21.568C44.5346 20.855 44.5346 20.855 43.8192 20.855C40.5998 20.855 37.2016 20.855 33.9822 20.855C33.8034 20.855 33.6245 20.855 33.4457 20.855C30.4051 20.855 27.1858 20.855 24.1453 20.855C23.4298 20.855 23.4298 20.855 23.4298 21.568C23.4298 22.994 23.4298 24.4199 23.4298 25.8459C23.4298 26.0242 23.4298 26.2024 23.4298 26.5589C23.4298 27.0937 23.4298 27.0937 23.9664 27.0937H24.1453C27.3646 27.0937 30.584 27.0937 33.6245 27.0937C35.0553 27.0937 36.3073 27.0937 37.7381 27.0937C38.2747 27.0937 38.2747 27.2719 38.2747 27.6284C38.0959 28.8761 37.7381 30.3021 37.2016 31.3716C36.1285 34.0453 34.1611 36.006 31.836 37.2538C29.8686 38.3233 27.5435 39.0363 25.2184 39.2145C22.5356 39.571 20.0316 39.2145 17.7065 38.3233C14.8449 37.2538 12.3409 35.6495 10.5524 33.1541C8.40613 30.4804 7.15415 27.2719 6.9753 23.7069C6.9753 21.7462 6.9753 19.9637 7.51186 18.1813C8.22727 16.0423 9.12154 13.9033 10.5524 12.1208C13.5929 8.1994 17.7065 6.23867 22.7144 6.06042C23.6087 6.06042 24.6818 6.06042 25.5761 6.23867C27.0069 6.41692 28.2589 6.77341 29.5109 7.12991C31.2994 7.8429 32.9091 8.73414 34.3399 10.1601C34.6976 10.5166 34.6976 10.5166 35.0553 10.1601C36.3073 8.91239 37.5593 7.66465 38.6324 6.41692C38.9901 6.06042 38.9901 6.06042 38.6324 5.70393C37.917 5.16918 37.2016 4.45619 36.4862 3.92145C34.6976 2.67372 32.5514 1.60423 30.4051 0.891239C28.08 0.356495 25.5761 0 23.251 0C21.4625 0 19.6739 0.178248 18.0642 0.712991C15.918 1.06949 14.1294 1.78248 12.3409 2.85196C9.83696 4.27795 7.69071 5.88218 5.72332 8.1994C3.93478 10.3384 2.3251 12.8338 1.43083 15.5076C0.536561 18.1813 0 20.855 0 23.7069C0 25.4894 0.357708 27.2719 0.894269 29.0544C1.25198 30.1239 1.60968 31.1934 1.96739 32.0846C2.86166 33.8671 3.93478 35.6495 5.36561 37.432C6.79644 39.2145 8.40613 40.4622 10.1947 41.8882C11.6255 42.9577 13.2352 43.6707 15.0237 44.3837C16.4545 44.9184 17.8854 45.2749 19.3162 45.6314C20.2105 45.8097 21.1047 45.8097 21.999 45.9879C23.6087 46.1662 25.2184 45.9879 26.8281 45.8097C28.4377 45.6314 30.2263 45.2749 31.836 44.5619C34.3399 43.6707 36.665 42.2447 38.8113 40.4622C41.3152 38.145 43.1038 35.1148 44.1769 31.9063C44.8923 28.3414 45.0711 24.9547 44.7134 21.568ZM8.22727 37.7885C8.40613 37.7885 8.40613 37.7885 8.22727 37.7885C8.40613 37.7885 8.40613 37.7885 8.22727 37.7885C8.22727 37.9668 8.22727 37.9668 8.40613 38.145C8.40613 38.145 8.22727 37.9668 8.22727 37.7885ZM1.25198 27.2719V27.0937V26.9154C1.25198 26.9154 1.25198 26.9154 1.25198 27.0937C1.43083 27.0937 1.25198 27.0937 1.25198 27.2719ZM30.9417 43.4924C31.1206 43.3142 31.1206 43.3142 31.2994 43.136H31.4783H31.2994C31.1206 43.3142 31.1206 43.3142 30.9417 43.4924ZM36.665 40.4622C36.4862 40.4622 36.4862 40.4622 36.665 40.4622C36.4862 40.4622 36.4862 40.4622 36.665 40.4622C36.665 40.4622 36.8439 40.4622 36.8439 40.284C36.665 40.4622 36.665 40.4622 36.665 40.4622Z" fill="#3C8DF9"/>
<path d="M2.31996 79V61.5455H8.54155C9.89382 61.5455 11.016 61.7784 11.908 62.2443C12.8058 62.7102 13.4762 63.3551 13.9194 64.179C14.3626 64.9972 14.5842 65.9432 14.5842 67.017C14.5842 68.0852 14.3597 69.0256 13.9109 69.8381C13.4677 70.6449 12.7972 71.2727 11.8995 71.7216C11.0075 72.1705 9.8853 72.3949 8.53303 72.3949H3.81996V70.1278H8.29439C9.14666 70.1278 9.83984 70.0057 10.3739 69.7614C10.9137 69.517 11.3086 69.1619 11.5586 68.696C11.8086 68.2301 11.9336 67.6705 11.9336 67.017C11.9336 66.358 11.8058 65.7869 11.5501 65.304C11.3001 64.821 10.9052 64.4517 10.3654 64.196C9.83132 63.9347 9.12962 63.804 8.2603 63.804H4.95348V79H2.31996ZM10.9364 71.125L15.2489 79H12.2489L8.02166 71.125H10.9364ZM21.3938 79.2898C20.5643 79.2898 19.8143 79.1364 19.1438 78.8295C18.4734 78.517 17.9421 78.0653 17.5501 77.4744C17.1637 76.8835 16.9705 76.1591 16.9705 75.3011C16.9705 74.5625 17.1126 73.9545 17.3967 73.4773C17.6808 73 18.0643 72.6222 18.5472 72.3438C19.0302 72.0653 19.57 71.8551 20.1665 71.7131C20.7631 71.571 21.3711 71.4631 21.9904 71.3892C22.7745 71.2983 23.4109 71.2244 23.8995 71.1676C24.3881 71.1051 24.7433 71.0057 24.9648 70.8693C25.1864 70.733 25.2972 70.5114 25.2972 70.2045V70.1449C25.2972 69.4006 25.087 68.8239 24.6665 68.4148C24.2518 68.0057 23.6325 67.8011 22.8086 67.8011C21.9506 67.8011 21.2745 67.9915 20.7802 68.3722C20.2915 68.7472 19.9535 69.1648 19.766 69.625L17.3711 69.0795C17.6552 68.2841 18.07 67.642 18.6154 67.1534C19.1665 66.6591 19.8001 66.3011 20.516 66.0795C21.2319 65.8523 21.9847 65.7386 22.7745 65.7386C23.2972 65.7386 23.8512 65.8011 24.4364 65.9261C25.0273 66.0455 25.5785 66.267 26.0898 66.5909C26.6069 66.9148 27.0302 67.3778 27.3597 67.9801C27.6893 68.5767 27.854 69.3523 27.854 70.3068V79H25.3654V77.2102H25.2631C25.0984 77.5398 24.8512 77.8636 24.5217 78.1818C24.1921 78.5 23.7688 78.7642 23.2518 78.9744C22.7347 79.1847 22.1154 79.2898 21.3938 79.2898ZM21.9478 77.2443C22.6523 77.2443 23.2546 77.1051 23.7546 76.8267C24.2603 76.5483 24.6438 76.1847 24.9052 75.7358C25.1722 75.2812 25.3058 74.7955 25.3058 74.2784V72.5909C25.2148 72.6818 25.0387 72.767 24.7773 72.8466C24.5217 72.9205 24.229 72.9858 23.8995 73.0426C23.57 73.0937 23.2489 73.142 22.9364 73.1875C22.6239 73.2273 22.3626 73.2614 22.1523 73.2898C21.658 73.3523 21.2063 73.4574 20.7972 73.6051C20.3938 73.7528 20.07 73.9659 19.8256 74.2443C19.587 74.517 19.4677 74.8807 19.4677 75.3352C19.4677 75.9659 19.7006 76.4432 20.1665 76.767C20.6325 77.0852 21.2262 77.2443 21.9478 77.2443ZM37.359 65.9091V67.9545H30.2085V65.9091H37.359ZM32.1261 62.7727H34.6744V75.1562C34.6744 75.6506 34.7482 76.0227 34.896 76.2727C35.0437 76.517 35.234 76.6847 35.467 76.7756C35.7056 76.8608 35.9641 76.9034 36.2425 76.9034C36.4471 76.9034 36.6261 76.8892 36.7795 76.8608C36.9329 76.8324 37.0522 76.8097 37.1374 76.7926L37.5977 78.8977C37.4499 78.9545 37.2397 79.0114 36.967 79.0682C36.6942 79.1307 36.3533 79.1648 35.9442 79.1705C35.2738 79.1818 34.6488 79.0625 34.0692 78.8125C33.4897 78.5625 33.021 78.1761 32.663 77.6534C32.305 77.1307 32.1261 76.4744 32.1261 75.6847V62.7727ZM40.1779 79V65.9091H42.7262V79H40.1779ZM41.4648 63.8892C41.0217 63.8892 40.641 63.7415 40.3228 63.446C40.0103 63.1449 39.854 62.7869 39.854 62.3722C39.854 61.9517 40.0103 61.5937 40.3228 61.2983C40.641 60.9972 41.0217 60.8466 41.4648 60.8466C41.908 60.8466 42.2859 60.9972 42.5984 61.2983C42.9165 61.5937 43.0756 61.9517 43.0756 62.3722C43.0756 62.7869 42.9165 63.1449 42.5984 63.446C42.2859 63.7415 41.908 63.8892 41.4648 63.8892ZM48.7028 71.2273V79H46.1545V65.9091H48.6005V68.0398H48.7624C49.0636 67.3466 49.5352 66.7898 50.1772 66.3693C50.8249 65.9489 51.6403 65.7386 52.6232 65.7386C53.5153 65.7386 54.2965 65.9261 54.967 66.3011C55.6374 66.6705 56.1573 67.2216 56.5266 67.9545C56.896 68.6875 57.0806 69.5937 57.0806 70.6733V79H54.5323V70.9801C54.5323 70.0312 54.2852 69.2898 53.7908 68.7557C53.2965 68.2159 52.6175 67.946 51.7539 67.946C51.163 67.946 50.6374 68.0739 50.1772 68.3295C49.7227 68.5852 49.3619 68.9602 49.0948 69.4545C48.8335 69.9432 48.7028 70.5341 48.7028 71.2273ZM65.9869 84.1818C64.9471 84.1818 64.0522 84.0455 63.3022 83.7727C62.5579 83.5 61.9499 83.1392 61.4783 82.6903C61.0067 82.2415 60.6545 81.75 60.4215 81.2159L62.6119 80.3125C62.7653 80.5625 62.9698 80.8267 63.2255 81.1051C63.4869 81.3892 63.8391 81.6307 64.2823 81.8295C64.7312 82.0284 65.3079 82.1278 66.0124 82.1278C66.9783 82.1278 67.7766 81.892 68.4073 81.4205C69.038 80.9545 69.3533 80.2102 69.3533 79.1875V76.6136H69.1914C69.038 76.892 68.8164 77.2017 68.5266 77.5426C68.2425 77.8835 67.8505 78.179 67.3505 78.429C66.8505 78.679 66.1999 78.804 65.3988 78.804C64.3647 78.804 63.4329 78.5625 62.6033 78.0795C61.7795 77.5909 61.1261 76.8722 60.6431 75.9233C60.1658 74.9687 59.9272 73.7955 59.9272 72.4034C59.9272 71.0114 60.163 69.8182 60.6346 68.8239C61.1119 67.8295 61.7653 67.0682 62.5948 66.5398C63.4244 66.0057 64.3647 65.7386 65.4158 65.7386C66.2283 65.7386 66.8846 65.875 67.3846 66.1477C67.8846 66.4148 68.2738 66.7273 68.5522 67.0852C68.8363 67.4432 69.055 67.7585 69.2085 68.0312H69.396V65.9091H71.8931V79.2898C71.8931 80.4148 71.6317 81.3381 71.109 82.0597C70.5863 82.7813 69.8789 83.3153 68.9869 83.6619C68.1005 84.0085 67.1005 84.1818 65.9869 84.1818ZM65.9613 76.6903C66.6942 76.6903 67.3136 76.5199 67.8192 76.179C68.3306 75.8324 68.717 75.3381 68.9783 74.696C69.2454 74.0483 69.3789 73.2727 69.3789 72.3693C69.3789 71.4886 69.2482 70.7131 68.9869 70.0426C68.7255 69.3722 68.342 68.8494 67.8363 68.4744C67.3306 68.0937 66.7056 67.9034 65.9613 67.9034C65.1942 67.9034 64.555 68.1023 64.0437 68.5C63.5323 68.892 63.146 69.4261 62.8846 70.1023C62.6289 70.7784 62.5011 71.5341 62.5011 72.3693C62.5011 73.2273 62.6317 73.9801 62.8931 74.6278C63.1545 75.2756 63.5408 75.7812 64.0522 76.1449C64.5692 76.5085 65.2056 76.6903 65.9613 76.6903Z" fill="#414141"/>
<g clip-path="url(#clip0_621_971)">
<path d="M95.2594 63.1594L97.8176 68.297C97.8585 68.3808 97.9403 68.4403 98.0357 68.4538L103.755 69.2786C103.992 69.3137 104.088 69.6003 103.916 69.768L99.7757 73.7645C99.7076 73.8294 99.6776 73.924 99.6939 74.0187L100.67 79.6646C100.711 79.8998 100.463 80.0756 100.25 79.9674L95.1367 77.3013C95.0521 77.258 94.9512 77.258 94.8667 77.3013L89.753 79.9674C89.5403 80.0783 89.2921 79.8998 89.333 79.6646L90.3094 74.0187C90.3257 73.9267 90.2957 73.8321 90.2276 73.7645L86.0876 69.7653C85.9157 69.6003 86.0112 69.311 86.2485 69.2759L91.9676 68.4511C92.0603 68.4376 92.1421 68.3781 92.1857 68.2943L94.7439 63.1567C94.8476 62.9458 95.153 62.9458 95.2594 63.1594Z" fill="#F3CC30"/>
<path d="M95.0005 64.3466L92.7205 68.7243C92.6005 68.9542 92.3714 69.1083 92.1123 69.1299L87.165 69.5761L92.3932 69.8195C92.726 69.8357 93.0287 69.6356 93.1432 69.3273L95.0005 64.3466Z" fill="#F7DB5E"/>
<path d="M89.4444 79.0157L89.3326 79.6647C89.2917 79.8999 89.5399 80.0757 89.7526 79.9675L94.8662 77.3014C94.9508 77.2581 95.0517 77.2581 95.1362 77.3014L100.25 79.9675C100.463 80.0784 100.711 79.8999 100.67 79.6647L99.6908 74.0188C99.6744 73.9268 99.7044 73.8322 99.7726 73.7646L103.91 69.7654C104.082 69.6004 103.986 69.3111 103.749 69.276L101.837 69.0029C98.739 74.5136 93.9962 77.415 89.4444 79.0157Z" fill="#EDBD31"/>
</g>
<g clip-path="url(#clip1_621_971)">
<path d="M116.259 63.1594L118.818 68.297C118.858 68.3808 118.94 68.4403 119.036 68.4538L124.755 69.2786C124.992 69.3137 125.088 69.6003 124.916 69.768L120.776 73.7645C120.708 73.8294 120.678 73.924 120.694 74.0187L121.67 79.6646C121.711 79.8998 121.463 80.0756 121.25 79.9674L116.137 77.3013C116.052 77.258 115.951 77.258 115.867 77.3013L110.753 79.9674C110.54 80.0783 110.292 79.8998 110.333 79.6646L111.309 74.0187C111.326 73.9267 111.296 73.8321 111.228 73.7645L107.088 69.7653C106.916 69.6003 107.011 69.311 107.248 69.2759L112.968 68.4511C113.06 68.4376 113.142 68.3781 113.186 68.2943L115.744 63.1567C115.848 62.9458 116.153 62.9458 116.259 63.1594Z" fill="#F3CC30"/>
<path d="M116.001 64.3466L113.72 68.7243C113.6 68.9542 113.371 69.1083 113.112 69.1299L108.165 69.5761L113.393 69.8195C113.726 69.8357 114.029 69.6356 114.143 69.3273L116.001 64.3466Z" fill="#F7DB5E"/>
<path d="M110.444 79.0157L110.333 79.6647C110.292 79.8999 110.54 80.0757 110.753 79.9675L115.866 77.3014C115.951 77.2581 116.052 77.2581 116.136 77.3014L121.25 79.9675C121.463 80.0784 121.711 79.8999 121.67 79.6647L120.691 74.0188C120.674 73.9268 120.704 73.8322 120.773 73.7646L124.91 69.7654C125.082 69.6004 124.986 69.3111 124.749 69.276L122.837 69.0029C119.739 74.5136 114.996 77.415 110.444 79.0157Z" fill="#EDBD31"/>
</g>
<g clip-path="url(#clip2_621_971)">
<path d="M136.259 63.1594L138.818 68.297C138.858 68.3808 138.94 68.4403 139.036 68.4538L144.755 69.2786C144.992 69.3137 145.088 69.6003 144.916 69.768L140.776 73.7645C140.708 73.8294 140.678 73.924 140.694 74.0187L141.67 79.6646C141.711 79.8998 141.463 80.0756 141.25 79.9674L136.137 77.3013C136.052 77.258 135.951 77.258 135.867 77.3013L130.753 79.9674C130.54 80.0783 130.292 79.8998 130.333 79.6646L131.309 74.0187C131.326 73.9267 131.296 73.8321 131.228 73.7645L127.088 69.7653C126.916 69.6003 127.011 69.311 127.248 69.2759L132.968 68.4511C133.06 68.4376 133.142 68.3781 133.186 68.2943L135.744 63.1567C135.848 62.9458 136.153 62.9458 136.259 63.1594Z" fill="#F3CC30"/>
<path d="M136.001 64.3466L133.72 68.7243C133.6 68.9542 133.371 69.1083 133.112 69.1299L128.165 69.5761L133.393 69.8195C133.726 69.8357 134.029 69.6356 134.143 69.3273L136.001 64.3466Z" fill="#F7DB5E"/>
<path d="M130.444 79.0157L130.333 79.6647C130.292 79.8999 130.54 80.0757 130.753 79.9675L135.866 77.3014C135.951 77.2581 136.052 77.2581 136.136 77.3014L141.25 79.9675C141.463 80.0784 141.711 79.8999 141.67 79.6647L140.691 74.0188C140.674 73.9268 140.704 73.8322 140.773 73.7646L144.91 69.7654C145.082 69.6004 144.986 69.3111 144.749 69.276L142.837 69.0029C139.739 74.5136 134.996 77.415 130.444 79.0157Z" fill="#EDBD31"/>
</g>
<g clip-path="url(#clip3_621_971)">
<path d="M156.259 63.1594L158.818 68.297C158.858 68.3808 158.94 68.4403 159.036 68.4538L164.755 69.2786C164.992 69.3137 165.088 69.6003 164.916 69.768L160.776 73.7645C160.708 73.8294 160.678 73.924 160.694 74.0187L161.67 79.6646C161.711 79.8998 161.463 80.0756 161.25 79.9674L156.137 77.3013C156.052 77.258 155.951 77.258 155.867 77.3013L150.753 79.9674C150.54 80.0783 150.292 79.8998 150.333 79.6646L151.309 74.0187C151.326 73.9267 151.296 73.8321 151.228 73.7645L147.088 69.7653C146.916 69.6003 147.011 69.311 147.248 69.2759L152.968 68.4511C153.06 68.4376 153.142 68.3781 153.186 68.2943L155.744 63.1567C155.848 62.9458 156.153 62.9458 156.259 63.1594Z" fill="#F3CC30"/>
<path d="M156.001 64.3466L153.72 68.7243C153.6 68.9542 153.371 69.1083 153.112 69.1299L148.165 69.5761L153.393 69.8195C153.726 69.8357 154.029 69.6356 154.143 69.3273L156.001 64.3466Z" fill="#F7DB5E"/>
<path d="M150.444 79.0157L150.333 79.6647C150.292 79.8999 150.54 80.0757 150.753 79.9675L155.866 77.3014C155.951 77.2581 156.052 77.2581 156.136 77.3014L161.25 79.9675C161.463 80.0784 161.711 79.8999 161.67 79.6647L160.691 74.0188C160.674 73.9268 160.704 73.8322 160.773 73.7646L164.91 69.7654C165.082 69.6004 164.986 69.3111 164.749 69.276L162.837 69.0029C159.739 74.5136 154.996 77.415 150.444 79.0157Z" fill="#EDBD31"/>
</g>
<g clip-path="url(#clip4_621_971)">
<path d="M177.259 63.1594L179.818 68.297C179.858 68.3808 179.94 68.4403 180.036 68.4538L185.755 69.2786C185.992 69.3137 186.088 69.6003 185.916 69.768L181.776 73.7645C181.708 73.8294 181.678 73.924 181.694 74.0187L182.67 79.6646C182.711 79.8998 182.463 80.0756 182.25 79.9674L177.137 77.3013C177.052 77.258 176.951 77.258 176.867 77.3013L171.753 79.9674C171.54 80.0783 171.292 79.8998 171.333 79.6646L172.309 74.0187C172.326 73.9267 172.296 73.8321 172.228 73.7645L168.088 69.7653C167.916 69.6003 168.011 69.311 168.248 69.2759L173.968 68.4511C174.06 68.4376 174.142 68.3781 174.186 68.2943L176.744 63.1567C176.848 62.9458 177.153 62.9458 177.259 63.1594Z" fill="#F3CC30"/>
<path d="M177.001 64.3466L174.72 68.7243C174.6 68.9542 174.371 69.1083 174.112 69.1299L169.165 69.5761L174.393 69.8195C174.726 69.8357 175.029 69.6356 175.143 69.3273L177.001 64.3466Z" fill="#F7DB5E"/>
<path d="M171.444 79.0157L171.333 79.6647C171.292 79.8999 171.54 80.0757 171.753 79.9675L176.866 77.3014C176.951 77.2581 177.052 77.2581 177.136 77.3014L182.25 79.9675C182.463 80.0784 182.711 79.8999 182.67 79.6647L181.691 74.0188C181.674 73.9268 181.704 73.8322 181.773 73.7646L185.91 69.7654C186.082 69.6004 185.986 69.3111 185.749 69.276L183.837 69.0029C180.739 74.5136 175.996 77.415 171.444 79.0157Z" fill="#EDBD31"/>
</g>
<defs>
<clipPath id="clip0_621_971">
<rect width="18" height="17" fill="white" transform="translate(86 63)"/>
</clipPath>
<clipPath id="clip1_621_971">
<rect width="18" height="17" fill="white" transform="translate(107 63)"/>
</clipPath>
<clipPath id="clip2_621_971">
<rect width="18" height="17" fill="white" transform="translate(127 63)"/>
</clipPath>
<clipPath id="clip3_621_971">
<rect width="18" height="17" fill="white" transform="translate(147 63)"/>
</clipPath>
<clipPath id="clip4_621_971">
<rect width="18" height="17" fill="white" transform="translate(168 63)"/>
</clipPath>
</defs>
</svg>
