<svg width="84" height="84" viewBox="0 0 84 84" fill="none" xmlns="http://www.w3.org/2000/svg">
<circle cx="42" cy="42" r="42" fill="#982629"/>
<path d="M41.6909 22C42.1396 22 42.5824 22 43.0311 22C43.0311 35.3204 43.0311 48.635 43.0311 61.9555C42.5824 61.9555 42.1396 61.9555 41.6909 61.9555C41.6909 48.635 41.6909 35.3146 41.6909 22Z" fill="white"/>
<path d="M46.7718 23.9928C51.649 23.9928 56.5262 23.9928 61.3975 23.9928C62.324 23.9928 63.0407 24.8027 62.93 25.7234C62.7377 27.3666 62.4056 28.9923 62.3531 30.6472C62.3182 31.6028 62.3881 32.5701 62.6328 33.4966C63.1048 35.3029 63.4836 37.185 63.2272 39.0555C63.1281 39.8887 62.7668 40.6579 62.4172 41.4154C62.1783 41.934 61.8986 42.4351 61.5607 42.8955C62.5163 43.6238 62.8426 44.8242 63.1806 45.9138C63.5069 46.9277 63.8273 47.9766 63.6933 49.0546C63.5943 50.0393 63.1572 50.9425 62.7727 51.8398C62.423 52.6381 62.2133 53.4947 62.155 54.3629C62.0851 54.9689 62.2308 55.5749 62.3706 56.1634C62.5104 56.752 62.6678 57.3405 62.796 57.9348C63.0232 58.972 62.2249 59.951 61.1644 59.951C56.5495 59.951 51.9345 59.951 47.3196 59.951C46.329 59.951 45.5307 59.1527 45.5307 58.1621C45.5307 57.2181 45.5307 56.2742 45.5307 55.3244C46.0202 55.4176 46.597 55.3418 46.935 54.9456C47.3021 54.5086 47.4303 53.9317 47.6867 53.4364C48.0013 52.7955 48.4791 52.2419 48.7588 51.5835C49.0094 50.9891 48.9511 50.3365 48.922 49.713C48.8695 48.7399 48.7938 47.7726 48.7297 46.7995C48.7064 46.5431 48.7006 46.2634 48.5257 46.0595C48.3859 45.8905 48.1645 45.8381 47.9547 45.8381C47.1448 45.8148 46.3348 45.8089 45.5249 45.8206C45.5249 45.2962 45.5249 44.7717 45.5249 44.2473C47.3429 44.6377 49.3182 44.6144 51.008 43.7812C51.2935 43.6297 51.5266 43.3849 51.6432 43.0819C51.7947 42.7032 51.7714 42.2953 51.783 41.8932C51.818 39.51 51.6898 37.1209 51.3052 34.7668C51.2528 34.3764 50.9672 34.0793 50.7167 33.7996C50.2389 33.281 49.8193 32.6866 49.6037 32.0107C49.3473 31.2124 49.2133 30.385 48.9103 29.6042C48.788 29.3128 48.6365 28.9923 48.3335 28.8583C47.7915 28.6136 47.1448 28.6485 46.597 28.87C46.2882 28.9807 46.1891 29.3303 46.0784 29.6042C45.8395 30.3558 45.6647 31.1308 45.5482 31.9116C45.5074 31.2882 45.4957 30.6588 45.6356 30.047C45.9852 28.5495 45.8687 27.017 45.5482 25.5136C45.385 24.7037 45.9968 23.9928 46.7718 23.9928ZM53.0475 30.3034C53.0533 31.2882 53.2689 32.2671 53.2106 33.2518C53.199 33.5781 53.0183 33.8695 52.9717 34.19C52.9193 34.5221 52.995 34.8601 53.0416 35.1922C53.3563 37.2608 53.4437 39.3585 53.3971 41.4504C53.3913 41.7009 53.3621 41.9515 53.3155 42.2021C53.9157 42.2953 54.5392 42.3827 55.1393 42.2195C55.7745 42.0564 56.4096 41.835 56.9399 41.4504C57.2371 41.2406 57.406 40.8793 57.3944 40.5181C57.3711 39.0963 57.2137 37.6803 56.969 36.2819C56.87 35.8157 56.8233 35.3262 56.5903 34.9009C56.3339 34.3415 55.8561 33.9103 55.6521 33.3276C55.3142 32.4244 55.2209 31.4455 54.7956 30.5714C54.6615 30.2859 54.4168 30.0645 54.1255 29.948C53.8691 29.8489 53.6069 29.709 53.3272 29.7207C53.0766 29.779 53.0533 30.0936 53.0475 30.3034ZM59.3348 31.7834C59.1192 32.5409 59.1483 33.3509 58.8569 34.0909C58.7113 34.4988 58.6064 34.9417 58.7054 35.3787C59.0492 37.0102 59.2474 38.6709 59.2765 40.3374C59.2823 40.6055 59.224 40.8677 59.1541 41.1182C59.3522 41.2581 59.5504 41.4329 59.8009 41.4445C60.0748 41.4562 60.2846 41.2464 60.4361 41.0483C60.8265 40.5122 61.0828 39.9004 61.3392 39.2944C61.5723 38.7467 61.6422 38.1407 61.6364 37.5521C61.6306 36.4916 61.4208 35.4486 61.1469 34.4289C61.0887 34.2075 60.9313 34.0268 60.7973 33.8462C60.3486 33.246 60.2263 32.4885 59.8767 31.8417C59.7893 31.6786 59.6494 31.5504 59.5096 31.4338C59.4455 31.5445 59.3639 31.6553 59.3348 31.7834ZM57.913 43.4257C56.9923 43.8219 56.1707 44.5154 55.8036 45.4651C55.4249 46.3625 55.5472 47.3531 55.5589 48.2971C55.5997 48.9322 55.5822 49.5906 55.8094 50.1966C55.9784 50.6803 56.4038 51.0066 56.6369 51.4553C56.8408 51.8457 56.9981 52.2536 57.1904 52.6498C57.3594 52.9936 57.5109 53.3723 57.8372 53.5996C58.0237 53.7453 58.3267 53.7161 58.4607 53.5122C58.5947 53.3199 58.6472 53.0868 58.6821 52.8654C58.7812 52.2011 58.8162 51.5252 58.9094 50.8609C58.991 50.2899 59.2415 49.7654 59.3814 49.2119C59.5212 48.6991 59.5562 48.163 59.5212 47.6328C59.4396 46.3683 59.0667 45.1505 58.6647 43.956C58.5889 43.7637 58.5306 43.5423 58.35 43.4257C58.216 43.3383 58.047 43.3733 57.913 43.4257ZM60.203 44.4338C60.8323 46.2168 61.1877 48.1922 60.6517 50.051C60.5293 50.5521 60.5235 51.0765 60.5468 51.5893C60.5759 51.7233 60.5468 51.9214 60.6924 51.9972C61.0887 51.9039 61.1236 51.432 61.281 51.129C61.4733 50.5521 61.9219 50.1092 62.0909 49.5265C62.2249 49.107 62.289 48.6583 62.2482 48.2155C62.1958 47.627 61.9977 47.0617 61.8229 46.5023C61.6539 45.9837 61.5082 45.4535 61.246 44.9699C61.1295 44.7601 60.978 44.5445 60.7507 44.4396C60.5759 44.3639 60.3836 44.4163 60.203 44.4338ZM53.1349 45.4651C52.4706 45.64 51.8063 45.8089 51.1421 45.9779C50.9206 46.0304 50.6875 46.1236 50.5594 46.3275C50.3671 46.6247 50.3787 46.9976 50.3904 47.3356C50.4428 48.1514 50.4953 48.973 50.5477 49.7888C50.5885 50.319 50.6409 50.9017 51.0255 51.3096C51.5674 51.9214 51.5907 52.778 51.9345 53.4889C52.1618 53.9842 52.995 54.1881 53.3213 53.6928C53.5719 53.2208 53.5661 52.6673 53.6418 52.1545C53.7642 51.2746 53.9565 50.3948 53.9798 49.5032C53.9856 48.3262 53.904 47.155 53.7642 45.9896C53.735 45.8148 53.7059 45.6167 53.5719 45.4826C53.4495 45.3719 53.2747 45.436 53.1349 45.4651Z" stroke="white" stroke-miterlimit="10"/>
<path d="M23.3712 23.9928C28.1435 23.9928 32.9157 23.9928 37.688 23.9928C38.5154 23.9928 39.1914 24.6629 39.1914 25.4962C39.1914 28.0775 39.1914 30.6588 39.1914 33.2402C38.4513 32.7682 37.5715 32.4594 36.6858 32.5235C35.532 32.5934 34.4657 33.2344 33.749 34.1201C33.4868 34.6969 33.3761 35.3321 33.2479 35.9497C32.9624 38.0824 32.8983 40.2442 32.9449 42.3943C32.9565 42.7673 33.0381 43.1577 33.2887 43.449C33.5742 43.7928 34.0229 43.9327 34.4249 44.0842C35.9516 44.6261 37.6239 44.5853 39.1972 44.2531C39.1972 44.7776 39.1972 45.302 39.1972 45.8264C38.3873 45.8206 37.5773 45.8206 36.7674 45.8439C36.5634 45.8497 36.3362 45.8963 36.2021 46.0653C36.0215 46.2693 36.0157 46.549 35.9924 46.7995C35.9224 48.0232 35.8059 49.241 35.7768 50.4647C35.7243 51.6359 36.6683 52.6614 37.7579 52.9761C38.2416 53.1101 38.7485 52.9936 39.1972 52.8071C39.1914 54.5727 39.1972 56.3324 39.1972 58.098C39.1972 59.1235 38.3639 59.9568 37.3384 59.9568C32.8225 59.9568 28.3066 59.9568 23.7907 59.9568C22.602 59.9568 21.7221 58.8497 21.9902 57.6901C22.1592 56.9501 22.3631 56.2159 22.5088 55.4759C22.6778 54.6659 22.5437 53.8268 22.3573 53.0285C22.1009 51.9272 21.4658 50.96 21.1802 49.8645C20.9705 49.1187 20.9472 48.3204 21.0928 47.557C21.2443 46.7879 21.5124 46.0478 21.7338 45.302C22.0077 44.4105 22.3922 43.484 23.1614 42.9013C22.5612 42.0855 22.1592 41.1474 21.7862 40.2151C21.2385 38.7 21.3842 37.051 21.6406 35.4952C21.8329 34.289 22.2874 33.1295 22.3515 31.9C22.4971 29.8431 22.0426 27.8211 21.8037 25.7817C21.6814 24.8319 22.4156 23.9928 23.3712 23.9928ZM24.1636 32.2379C23.814 32.6808 23.5868 33.2052 23.412 33.7355C23.1031 34.8193 22.8642 35.9322 22.7768 37.0568C22.7069 38.0241 22.7244 39.038 23.109 39.947C23.4178 40.6696 23.7266 41.3979 24.1811 42.0447C24.3618 42.2895 24.5948 42.5342 24.9095 42.575C25.2533 42.6099 25.533 42.371 25.7952 42.1846C25.7078 41.8757 25.632 41.5553 25.6437 41.2289C25.6845 39.2128 25.9176 37.1967 26.3313 35.2214C26.4187 34.7727 26.5993 34.359 26.7916 33.9452C26.1914 33.3509 25.5738 32.7507 24.8512 32.3079C24.6415 32.2088 24.3384 31.999 24.1636 32.2379ZM29.7633 33.4383C29.0699 33.7704 28.528 34.3648 28.1726 35.0407C27.9162 35.5244 27.8521 36.0721 27.7414 36.5965C27.4967 37.9833 27.351 39.3876 27.3219 40.7978C27.3102 41.1648 27.4792 41.5319 27.7822 41.7417C28.3183 42.1321 28.9534 42.3477 29.5885 42.5167C30.1887 42.6857 30.8239 42.5925 31.424 42.4992C31.3832 42.272 31.3541 42.0447 31.3483 41.8175C31.29 39.5741 31.3949 37.3191 31.7562 35.099C31.7911 34.8426 31.8785 34.5979 31.9776 34.359C31.727 34.0618 31.4765 33.753 31.1385 33.5607C30.7306 33.3043 30.2004 33.2227 29.7633 33.4383ZM26.541 43.9909C26.2905 44.1191 26.2497 44.4279 26.1506 44.6669C25.7602 45.7681 25.4514 46.9161 25.4747 48.0931C25.4456 48.7982 25.6553 49.4857 25.8884 50.1442C26.0574 50.5812 26.5993 50.7094 27.0247 50.7094C27.7472 50.7094 28.2891 50.1267 28.6271 49.5557C28.866 49.1827 28.8136 48.7282 28.8369 48.3029C28.8485 47.5978 28.9534 46.8811 28.7844 46.1819C28.598 45.3661 28.0444 44.6552 27.316 44.2531C27.0829 44.1249 26.8266 43.9093 26.541 43.9909ZM24.0296 43.9385C23.7732 44.055 23.6101 44.2998 23.4761 44.5328C23.1847 45.0573 23.0216 45.64 22.8409 46.211C22.5962 46.9976 22.3048 47.7959 22.3281 48.635C22.3456 49.0779 22.433 49.5265 22.6078 49.9403C22.8526 50.5055 23.6276 50.8085 24.1578 50.4414C24.1403 50.1325 24.0121 49.8412 23.9713 49.5324C23.645 47.6444 24.0296 45.7099 24.6589 43.9268C24.4492 43.9093 24.2277 43.8511 24.0296 43.9385ZM31.0744 44.9582C30.8763 45.0806 30.8472 45.337 30.8122 45.5467C30.6782 46.6655 30.5849 47.7901 30.5791 48.9147C30.5733 49.3226 30.5616 49.7363 30.6782 50.1325C30.8646 50.8143 31.3716 51.432 32.0533 51.6592C32.6069 51.8457 33.2304 51.6534 33.6616 51.2863C34.0811 50.9308 34.2676 50.3773 34.3026 49.8412C34.3666 48.9147 34.4191 47.9824 34.4832 47.0559C34.4948 46.6713 34.5181 46.246 34.2967 45.9138C34.1627 45.7041 33.918 45.605 33.6791 45.5467C32.974 45.3661 32.2631 45.1855 31.5581 44.999C31.4066 44.9582 31.2317 44.8824 31.0744 44.9582Z" stroke="white" stroke-miterlimit="10"/>
</svg>
