<?xml version="1.0" encoding="utf-8"?>
<!-- Generator: Adobe Illustrator 24.0.0, SVG Export Plug-In . SVG Version: 6.00 Build 0)  -->
<svg version="1.1" xmlns="http://www.w3.org/2000/svg" xmlns:xlink="http://www.w3.org/1999/xlink" x="0px" y="0px"
	 viewBox="0 0 250 250" style="enable-background:new 0 0 250 250;" xml:space="preserve">
<style type="text/css">
	.st0{display:none;}
	.st1{display:inline;}
</style>
<g id="Layer_1" class="st0">
	<g class="st1">
		<path d="M152.7,103.4l-4.5,16.1c-0.5,1.9-2.3,3.3-4.2,3.3h-38.2c-2,0-3.7-1.4-4.2-3.3l-4.5-16.1H152.7z"/>
		<path d="M157,91c-1.5,2.6-2.6,5.3-3.2,8.3H96.2c-0.6-2.9-1.7-5.7-3.2-8.3c-2.9-4.9-5.8-13.7-3.1-27.8c1.9-9.8,6.3-15.2,13.1-16.1
			c3.2-0.4,6.7,0.4,10.1,2.3c2.3,1.3,4.4,2.3,6.3,3c1.7,0.6,3.6,0.9,5.6,0.9h0.1c2,0,3.8-0.3,5.6-0.9c1.9-0.7,4-1.6,6.2-2.9
			c3.4-1.9,6.9-2.7,10.2-2.3c6.8,0.9,11.2,6.4,13.1,16.1C162.8,77.2,159.9,86.1,157,91z"/>
		<path d="M135.7,188.4l-0.4,4.8c-0.4,5.4-5,9.6-10.4,9.6c-5,0-9.2-3.7-10.2-8.5C121.5,193.3,128.2,191.4,135.7,188.4z"/>
		<path d="M138.2,158.1l-0.7,8.7c-8.2,4.1-16.2,6.4-24.4,7l-0.7-9.3h0.2C121.3,164.4,130,162.3,138.2,158.1z"/>
		<path d="M140.7,126.9l-0.8,9.3c-9.1,4.9-19,7.5-28.9,7.4c-0.1,0-0.3,0-0.4,0l-1.4-16.7H140.7z"/>
		<path d="M136.9,173.2l-0.7,8.9c-8,3.5-15,5.6-22,6.7l-0.8-9.4C121.4,178.8,129.1,176.8,136.9,173.2z"/>
		<path d="M139.4,142.8l-0.7,8.7c-8.4,5-17.6,7.5-26.9,7.4l-0.8-9.6h0.4C121,149.2,130.6,147,139.4,142.8z"/>
	</g>
</g>
<g id="Layer_2">
	<path d="M186.1,90c-0.1-9.6-4-18.6-11-25.3c-6.9-6.7-16.1-10.3-25.7-10.1c-8.3,0.2-16.3,3.2-22.6,8.5c0,0,0,0,0,0
		c-2.7,2.3-5.1,5.1-7.1,8.1c-0.3,0.5-0.9,0.8-1.5,0.8c-0.3,0-0.7-0.1-1-0.3c-0.9-0.5-1.1-1.7-0.6-2.5c1.7-2.7,3.8-5.2,6.2-7.5
		c-6-4.5-13.4-7.1-20.9-7.2c-9.6-0.2-18.7,3.4-25.7,10.1c-6.9,6.7-10.8,15.7-11,25.3c-0.1,8.3,2.5,16.1,7.6,22.6
		c5.8,7.4,9.5,16.5,10.7,26.2l5.3,43.3c0.6,4.8,5.4,5.8,7.4,6c2,0.2,4.1,0,5.8-0.6c1.5-0.5,2.5-1.2,2.8-2c1.3-3.5,1.9-8.3,2.6-13.4
		c0.9-6.5,1.8-13.3,4.2-18.6c2.9-6.4,7.6-9.6,14-9.6c6.7,0,11.6,3.5,14.6,10.3c2.5,5.6,3.4,12.7,4.2,19.5c0.6,4.4,1.1,8.6,2,11.9
		c0.4,1.5,3.9,2.8,7.9,2.5c1.7-0.1,7.5-1,8.1-6.1l5.3-43.3c1.2-9.7,4.9-18.7,10.7-26.2C183.6,106.1,186.2,98.3,186.1,90z M93.9,63.1
		c-7.3,2.4-13.5,7.3-17.6,13.9c-0.2,0.4-0.6,0.5-1,0.5c-0.2,0-0.4-0.1-0.6-0.2c-0.5-0.3-0.7-1-0.4-1.6c4.3-7,11-12.3,18.8-14.8
		c0.6-0.2,1.2,0.1,1.4,0.7C94.8,62.3,94.5,62.9,93.9,63.1z"/>
</g>
<g id="Layer_3" class="st0">
	<g class="st1">
		<path d="M79.4,143.4c0,3.4-2.8,6.1-6.1,6.1H59c-3.4,0-6.1-2.8-6.1-6.1v-5.2H38.3v2.6c0,8.1,0,15.1,3.4,20
			c3.7,5.4,11.5,7.9,24.5,7.9h0c13,0,20.8-2.5,24.5-7.9c3.4-4.9,3.4-11.9,3.4-20v-2.6H79.4V143.4z"/>
		<path d="M73.2,145.6c1.2,0,2.2-1,2.2-2.2v-14.3c0-1.2-1-2.2-2.2-2.2H59c-1.2,0-2.2,1-2.2,2.2v14.3c0,1.2,1,2.2,2.2,2.2H73.2z"/>
		<path d="M66.1,74.4c-4.7,0-8.9,2.4-11.3,6.4c-0.2,0.3-16.6,27.6-16.6,41.5v12h14.6v-5.2c0-3.4,2.8-6.1,6.1-6.1h14.3
			c3.4,0,6.1,2.8,6.1,6.1v5.2H94v-12c0-13.6-16.4-41.2-16.6-41.5C75,76.7,70.8,74.4,66.1,74.4z M55.9,96l-5.6,13.2
			c-0.2,0.5-0.7,0.7-1.1,0.7c-0.2,0-0.3,0-0.5-0.1c-0.6-0.3-0.9-1-0.6-1.6l5.6-13.2c0.3-0.6,1-0.9,1.6-0.6
			C55.9,94.7,56.2,95.4,55.9,96z"/>
		<path d="M192.5,145.6c1.2,0,2.2-1,2.2-2.2v-14.3c0-1.2-1-2.2-2.2-2.2h-14.3c-1.2,0-2.2,1-2.2,2.2v14.3c0,1.2,1,2.2,2.2,2.2H192.5z
			"/>
		<path d="M196.7,80.7c-2.4-4-6.6-6.4-11.3-6.4c-4.7,0-8.9,2.4-11.3,6.4c-0.2,0.3-16.6,27.6-16.6,41.5v12h14.6v-5.2
			c0-3.4,2.8-6.1,6.1-6.1h14.3c3.4,0,6.1,2.8,6.1,6.1v5.2h14.6v-12C213.2,108.6,196.8,81,196.7,80.7z M175.2,96l-5.6,13.2
			c-0.2,0.5-0.7,0.7-1.1,0.7c-0.2,0-0.3,0-0.5-0.1c-0.6-0.3-0.9-1-0.6-1.6l5.6-13.2c0.3-0.6,1-0.9,1.6-0.6
			C175.2,94.7,175.5,95.4,175.2,96z"/>
		<path d="M139,143.4c0,3.4-2.8,6.1-6.1,6.1h-14.3c-3.4,0-6.1-2.8-6.1-6.1v-5.2H97.9v2.6c0,8.1,0,15.1,3.4,20
			c3.7,5.4,11.5,7.9,24.5,7.9h0c13,0,20.8-2.5,24.5-7.9c3.4-4.9,3.4-11.9,3.4-20v-2.6H139V143.4z"/>
		<path d="M198.6,143.4c0,3.4-2.8,6.1-6.1,6.1h-14.3c-3.4,0-6.1-2.8-6.1-6.1v-5.2h-14.6v2.6c0,8.1,0,15.1,3.4,20
			c3.7,5.4,11.5,7.9,24.5,7.9h0c13,0,20.8-2.5,24.5-7.9c3.4-4.9,3.4-11.9,3.4-20v-2.6h-14.6V143.4z"/>
		<path d="M132.9,145.6c1.2,0,2.2-1,2.2-2.2v-14.3c0-1.2-1-2.2-2.2-2.2h-14.3c-1.2,0-2.2,1-2.2,2.2v14.3c0,1.2,1,2.2,2.2,2.2H132.9z
			"/>
		<path d="M125.7,74.4c-4.7,0-8.9,2.4-11.3,6.4c-0.2,0.3-16.6,27.6-16.6,41.5v12h14.6v-5.2c0-3.4,2.8-6.1,6.1-6.1h14.3
			c3.4,0,6.1,2.8,6.1,6.1v5.2h14.6v-12c0-13.6-16.4-41.2-16.6-41.5C134.6,76.7,130.4,74.4,125.7,74.4z M115.6,96l-5.6,13.2
			c-0.2,0.5-0.7,0.7-1.1,0.7c-0.2,0-0.3,0-0.5-0.1c-0.6-0.3-0.9-1-0.6-1.6l5.6-13.2c0.3-0.6,1-0.9,1.6-0.6
			C115.5,94.7,115.8,95.4,115.6,96z"/>
	</g>
</g>
</svg>
